<svg xmlns="http://www.w3.org/2000/svg" width="42" height="42" viewBox="0 0 42 42"><title>doc-icon</title><polygon points="24.93 11.01 24.93 13.82 27.81 13.82 24.93 11.01" fill="none"/><path d="M23.43,15.32V10H13.1V32H28.9V15.32ZM14.87,14h6.06v1.5H14.87Zm0,2.75h8.87v1.5H14.87Zm0,5.63h8.28v1.5H14.87Zm7.09,7H14.87v-1.5H22Zm1.77-2.74H14.87v-1.5h8.87Zm1.63-5.49H14.87V19.6H25.36Z" fill="none"/><path d="M21.07,1.5A19.33,19.33,0,0,0,1.5,21,19.67,19.67,0,0,0,20.94,40.5a19.5,19.5,0,0,0,.13-39Zm9.32,32H11.6V8.47H24.48l5.91,5.78Z" fill="none"/><path d="M21.07,0A20.81,20.81,0,0,0,0,21,21.18,21.18,0,0,0,20.93,42a21,21,0,0,0,.14-42Zm-.13,40.5A19.67,19.67,0,0,1,1.5,21a19.5,19.5,0,1,1,39,0A19.56,19.56,0,0,1,20.94,40.5Z" fill="#ee7f01"/><rect x="14.87" y="13.96" width="6.06" height="1.5" fill="#ee7f01"/><rect x="14.87" y="16.71" width="8.87" height="1.5" fill="#ee7f01"/><rect x="14.87" y="19.6" width="10.49" height="1.5" fill="#ee7f01"/><rect x="14.87" y="22.34" width="8.28" height="1.5" fill="#ee7f01"/><rect x="14.87" y="25.09" width="8.87" height="1.5" fill="#ee7f01"/><rect x="14.87" y="27.83" width="7.09" height="1.5" fill="#ee7f01"/><path d="M11.6,8.47V33.53H30.4V14.25L24.48,8.47ZM24.93,11l2.88,2.81H24.93ZM13.1,32V10H23.43v5.35H28.9V32Z" fill="#ee7f01"/></svg>