<svg xmlns="http://www.w3.org/2000/svg" width="42" height="42" viewBox="0 0 42 42"><title>lens-icon</title><path d="M20.93,42A21.18,21.18,0,0,1,0,21a21,21,0,1,1,42,0A21.06,21.06,0,0,1,20.93,42Zm.14-40.5A19.33,19.33,0,0,0,1.5,21,19.67,19.67,0,0,0,20.94,40.5a19.5,19.5,0,0,0,.13-39Z" fill="#ee7f01"/><path d="M27.91,14.21a5.79,5.79,0,0,0-8.34,0,5.78,5.78,0,0,0,0,8.35,5.79,5.79,0,0,0,8.34,0h0a5.65,5.65,0,0,0,1.76-4A5.94,5.94,0,0,0,27.91,14.21Z" fill="none"/><path d="M29,13.15a7.4,7.4,0,0,0-11,9.91l-6.84,6.85A.75.75,0,0,0,12.23,31l6.84-6.85a7.28,7.28,0,0,0,9.9-.5,7.14,7.14,0,0,0,2.21-5.11A7.42,7.42,0,0,0,29,13.15Zm-1,9.4h0a5.79,5.79,0,0,1-8.34,0,5.78,5.78,0,0,1,0-8.35,5.79,5.79,0,0,1,8.34,0,5.94,5.94,0,0,1,1.77,4.29A5.65,5.65,0,0,1,27.92,22.55Z" fill="#ee7f01"/></svg>