<svg xmlns="http://www.w3.org/2000/svg" width="42" height="42" viewBox="0 0 42 42"><title>chart-icon</title><path d="M21.07,1.5A19.33,19.33,0,0,0,1.5,21,19.67,19.67,0,0,0,20.94,40.5a19.5,19.5,0,0,0,.13-39ZM14.9,21.19l3.47,2.87L22.5,16.9l-2.18-1.33,5.87-3.25-.12,6.75-2.29-1.39-5,8.66L15,23.21l-3,3-1.06-1.06Zm15.16,8.88H10.71v-1.5H28.57V10.71h1.5Z" fill="none"/><path d="M21.07,0A20.81,20.81,0,0,0,0,21,21.18,21.18,0,0,0,20.93,42a21,21,0,0,0,.14-42Zm-.13,40.5A19.67,19.67,0,0,1,1.5,21a19.5,19.5,0,1,1,39,0A19.56,19.56,0,0,1,20.94,40.5Z" fill="#ee7f01"/><polygon points="28.57 28.57 10.71 28.57 10.71 30.07 30.07 30.07 30.07 10.71 28.57 10.71 28.57 28.57" fill="#ee7f01"/><polygon points="15 23.21 18.78 26.34 23.79 17.68 26.07 19.07 26.2 12.33 20.32 15.58 22.5 16.9 18.37 24.05 14.9 21.19 10.93 25.16 11.98 26.23 15 23.21" fill="#ee7f01"/></svg>