<svg xmlns="http://www.w3.org/2000/svg" width="42" height="42" viewBox="0 0 42 42"><title>money-icon</title><path d="M23.74,12.44a5.87,5.87,0,0,0-4.17,1.77,5.78,5.78,0,0,0,0,8.35,5.79,5.79,0,0,0,8.34,0h0a5.65,5.65,0,0,0,1.76-4,5.94,5.94,0,0,0-1.77-4.29A5.88,5.88,0,0,0,23.74,12.44Zm2.31,8.12a2,2,0,0,1-.39.65,2.41,2.41,0,0,1-1.24.72v1H23V22a3.82,3.82,0,0,1-1.67-.5l-.12-.08L22,20.21a3.13,3.13,0,0,0,1.51.4,1.25,1.25,0,0,0,.73-.2.56.56,0,0,0,.24-.47c0-.33-.18-.61-1.08-.94h0a4.1,4.1,0,0,1-1.44-.81,1.8,1.8,0,0,1-.58-1.36,2,2,0,0,1,.52-1.37A2.38,2.38,0,0,1,23,14.79v-1h1.38v.86a3.58,3.58,0,0,1,1.38.39l.14.07h0l-.71,1.24a2.77,2.77,0,0,0-1.3-.32,1,1,0,0,0-.68.2.5.5,0,0,0-.17.38.51.51,0,0,0,.24.42,4,4,0,0,0,1,.48,4.84,4.84,0,0,1,.82.39,2.49,2.49,0,0,1,.59.49,2,2,0,0,1,.47,1.36A2.13,2.13,0,0,1,26.06,20.57Z" fill="none"/><path d="M21.07,1.5A19.33,19.33,0,0,0,1.5,21,19.67,19.67,0,0,0,20.94,40.5a19.5,19.5,0,0,0,.13-39ZM29,23.63a7.27,7.27,0,0,1-9.84.54l0,.06L12.22,31a.75.75,0,0,1-1.05-1.07L18,23.16l0,0a7.39,7.39,0,0,1,10.9-10,7.42,7.42,0,0,1,2.21,5.36A7.14,7.14,0,0,1,29,23.63Z" fill="none"/><path d="M21.07,0A20.81,20.81,0,0,0,0,21,21.18,21.18,0,0,0,20.93,42a21,21,0,0,0,.14-42Zm-.13,40.5A19.67,19.67,0,0,1,1.5,21a19.5,19.5,0,1,1,39,0A19.56,19.56,0,0,1,20.94,40.5Z" fill="#ee7f01"/><path d="M23.74,10.94a7.45,7.45,0,0,0-5.67,12.19l0,0-6.87,6.75A.75.75,0,0,0,12.22,31l6.87-6.76,0-.06A7.27,7.27,0,0,0,29,23.63a7.14,7.14,0,0,0,2.21-5.11,7.54,7.54,0,0,0-7.44-7.58Zm4.18,11.61h0a5.79,5.79,0,0,1-8.34,0,5.78,5.78,0,0,1,0-8.35,5.79,5.79,0,0,1,8.34,0,5.94,5.94,0,0,1,1.77,4.29A5.65,5.65,0,0,1,27.92,22.55Z" fill="#ee7f01"/><path d="M25.13,18a4.84,4.84,0,0,0-.82-.39,4,4,0,0,1-1-.48.51.51,0,0,1-.24-.42.5.5,0,0,1,.17-.38,1,1,0,0,1,.68-.2,2.77,2.77,0,0,1,1.3.32l.71-1.24h0l-.14-.07a3.58,3.58,0,0,0-1.38-.39v-.86H23v1a2.38,2.38,0,0,0-1.17.67,2,2,0,0,0-.52,1.37,1.8,1.8,0,0,0,.58,1.36,4.1,4.1,0,0,0,1.44.81h0c.89.33,1.08.61,1.08.94a.56.56,0,0,1-.24.47,1.25,1.25,0,0,1-.73.2,3.13,3.13,0,0,1-1.51-.4l-.72,1.25.12.08A3.82,3.82,0,0,0,23,22v.86h1.38v-1a2.41,2.41,0,0,0,1.24-.72,2,2,0,0,0,.39-.65,2.13,2.13,0,0,0,.13-.75,2,2,0,0,0-.47-1.36A2.49,2.49,0,0,0,25.13,18Z" fill="#ee7f01"/></svg>