<?xml version="1.0" standalone="no"?>
<!DOCTYPE svg PUBLIC "-//W3C//DTD SVG 20010904//EN"
 "http://www.w3.org/TR/2001/REC-SVG-20010904/DTD/svg10.dtd">
<svg version="1.0" xmlns="http://www.w3.org/2000/svg"
 width="300.000000pt" height="300.000000pt" viewBox="0 0 300.000000 300.000000"
 preserveAspectRatio="xMidYMid meet">
<metadata>
Created by potrace 1.11, written by Peter Selinger 2001-2013
</metadata>
<g transform="translate(0.000000,300.000000) scale(0.100000,-0.100000)"
fill="#000000" stroke="none">
<path d="M0 2315 c0 -24 3 -25 58 -25 35 0 66 -6 79 -15 11 -8 156 -185 321
-392 165 -208 359 -452 431 -543 73 -91 142 -178 155 -195 13 -16 103 -129
199 -251 l175 -220 49 2 c26 1 51 2 54 3 4 0 7 90 7 198 l1 197 -321 400
c-177 221 -333 415 -347 432 -14 17 -36 44 -49 60 -13 16 -85 106 -160 201
l-137 172 -257 1 -258 0 0 -25z"/>
<path d="M1162 2295 c2 -22 7 -25 43 -26 105 -2 153 -24 195 -89 53 -82 71
-151 86 -325 9 -108 9 -108 32 -112 12 -1 22 0 23 5 1 4 2 18 4 32 16 149 40
262 68 318 27 55 93 113 173 153 54 27 74 31 175 36 l114 5 -3 -703 c-2 -424
-7 -719 -13 -742 -16 -60 -55 -97 -114 -105 -47 -7 -50 -9 -53 -40 l-3 -32
345 0 346 0 0 30 c0 24 -5 31 -27 36 -63 14 -91 26 -112 48 -48 51 -49 66 -46
786 2 371 4 684 4 696 1 20 6 20 94 18 107 -3 228 -32 285 -67 49 -31 119
-111 139 -157 8 -19 22 -65 31 -102 12 -53 20 -68 34 -68 17 0 18 14 18 215
l0 215 -920 0 -920 0 2 -25z"/>
<path d="M365 1265 c-2 -11 -6 -63 -9 -115 -4 -52 -8 -107 -11 -121 -27 -143
-140 -263 -266 -283 -60 -9 -70 -16 -67 -45 l3 -26 358 0 358 0 6 23 c7 29 -3
39 -43 45 -53 8 -100 36 -147 87 -91 99 -109 148 -122 335 -4 50 -9 98 -11
107 -7 23 -44 18 -49 -7z"/>
</g>
</svg>
