<svg xmlns="http://www.w3.org/2000/svg" width="69.752" height="70.32" viewBox="0 0 69.752 70.32"><title>search-icon</title><path d="M69.166,66.906,51.258,49a29.481,29.481,0,1,0-2.869,2.787L66.338,69.734a2,2,0,1,0,2.828-2.828Zm-21.7-19.719a1.969,1.969,0,0,0-.5.354,1.945,1.945,0,0,0-.324.443A25.386,25.386,0,0,1,11.421,11.433,25.386,25.386,0,0,1,47.469,47.187Zm-5.43-19.8H31.373V16.721a2,2,0,1,0-4,0V27.387H16.707a2,2,0,0,0,0,4H27.373V42.055a2,2,0,0,0,4,0V31.387H42.039a2,2,0,0,0,0-4Z" transform="translate(0 0)" style="fill:#fff"/></svg>