<svg xmlns="http://www.w3.org/2000/svg" style="display:none"><symbol id="404" viewBox="0 0 1052 453"><title>404</title><path d="M216.47 281.06v-145a412.2 412.2 0 0 1 2.77-45.36L81.18 281.06zm122.07 0v43.83a15.84 15.84 0 0 1-4 10.73q-4 4.29-11.38 4.29h-40.58V448.1h-66.11V339.9H28.9A20.94 20.94 0 0 1 8 323.35L0 285 210.63 4.6h72v276.46zm357-54.56q0 57.93-12.61 100.84-12.3 42.6-34.44 70.49-21.83 27.89-52 41.68Q566.74 453 532 453t-64.57-13.49q-29.52-13.79-51.35-41.68t-34.13-70.49q-12.3-42.91-12.3-100.84 0-58.23 12.3-100.84t34.13-70.49q21.83-27.89 51.35-41.38Q497.25 0 532 0t64.57 13.79q30.13 13.49 52 41.38 22.1 27.89 34.43 70.49 12.58 42.61 12.58 100.84zm-78.41 0q0-48.12-7.07-79.69T591 96.55q-11.65-18.7-27-26.06a69.92 69.92 0 0 0-63.65 0q-15.07 7.36-26.75 26.05t-18.76 50.27q-6.76 31.57-6.76 79.69t6.76 79.69q7.07 31.57 18.76 50.27t26.75 26.36a72.53 72.53 0 0 0 63.65 0q15.38-7.66 27.06-26.36 12-18.7 19.06-50.27t7.05-79.69zm312.76 54.56v-145a412.21 412.21 0 0 1 2.77-45.36L794.64 281.06zm122.07 0v43.83a15.82 15.82 0 0 1-4 10.73q-4 4.29-11.37 4.29H996V448.1h-66.07V339.9H742.36a20.94 20.94 0 0 1-20.91-16.55l-8-38.31L924.09 4.6h72v276.46z"/></symbol><symbol id="accounting-icon" viewBox="0 0 56.89 64"><title>accounting-icon</title><path d="M48.333 37.489a.848.848 0 0 0-1.146.325.722.722 0 0 0 .353 1.057c4.939 2.358 7.585 5.286 7.585 8.457 0 5.936-9.614 11.141-22.491 12.036a.975.975 0 0 0-.794.894.847.847 0 0 0 .882.732c14.024-.976 24.255-6.75 24.167-13.581-.001-3.821-3.089-7.318-8.556-9.92zM31.919 40.733a12.474 12.474 0 0 1-2.019.167c-2.91 0-4.982-.874-5.556-1.832v-1.8a10.75 10.75 0 0 0 5.468 1.279 10.42 10.42 0 0 0 2.107-.154v-1.235a12.443 12.443 0 0 1-2.02.168c-2.91 0-4.982-.874-5.556-1.832v-1.723a10.75 10.75 0 0 0 5.468 1.279 10.417 10.417 0 0 0 2.108-.155v-1.221a12.443 12.443 0 0 1-2.02.168c-2.91 0-4.982-.874-5.556-1.832v-.771a.6.6 0 0 0-.177-.422v-.652a10.434 10.434 0 0 0 5.645 1.387v.014a10.417 10.417 0 0 0 2.108-.155v-1.234a12.45 12.45 0 0 1-2.02.168c-3.439 0-5.732-1.219-5.733-2.358v-1.25a10.433 10.433 0 0 0 5.645 1.4v.014a10.4 10.4 0 0 0 2.108-.142v-1.252a12.443 12.443 0 0 1-2.02.168c-3.439 0-5.732-1.219-5.733-2.358v-1.326a10.435 10.435 0 0 0 5.645 1.4v.01a10.4 10.4 0 0 0 2.108-.142v-1.25a12.443 12.443 0 0 1-2.02.168c-3.439 0-5.732-1.219-5.733-2.358v-1.325a10.435 10.435 0 0 0 5.645 1.4v.007a10.4 10.4 0 0 0 2.108-.142v-1.25a12.443 12.443 0 0 1-2.02.168c-3.439 0-5.732-1.22-5.733-2.358v-1.32a10.433 10.433 0 0 0 5.645 1.4 10.4 10.4 0 0 0 2.108-.142V17a1.621 1.621 0 0 1 .206-.766 12.419 12.419 0 0 1-2.226.2c-3.439 0-5.732-1.22-5.733-2.358V12.75a10.433 10.433 0 0 0 5.645 1.4 10.4 10.4 0 0 0 5.821-1.527v1.446a.925.925 0 0 1-.049.194 11.961 11.961 0 0 1 1.46-.221V3.575a.607.607 0 0 0-.245-.492C36.343 1.3 33.452 0 29.812 0c-3.961 0-7.042 1.539-7.055 3.566v25.493a10.433 10.433 0 0 0-5.645-1.4c-3.968 0-7.054 1.544-7.056 3.576v17.476c0 2.034 3.086 3.58 7.055 3.58s7.056-1.626 7.232-3.578v-7.868a10.749 10.749 0 0 0 5.468 1.279 14.19 14.19 0 0 0 2.108-.154zm-9.147-2.018c-.566.97-2.708 1.862-5.573 1.862-3.44 0-5.733-1.22-5.733-2.358V36.9a10.434 10.434 0 0 0 5.645 1.4 10.718 10.718 0 0 0 5.645-1.375v1.617c0 .058.011.115.016.173zm-11.306-3.977v-1.331a10.434 10.434 0 0 0 5.645 1.4 10.434 10.434 0 0 0 5.645-1.4v1.849c-.586.961-2.714 1.84-5.556 1.84-3.441.004-5.734-1.22-5.734-2.358zm5.645-5.868c3.012 0 5.224.985 5.645 2.011v.69c-.421 1.026-2.633 2.011-5.645 2.011-3.079 0-5.226-.978-5.645-2v-.36a.6.6 0 0 0-.041-.185c.24-1.076 2.516-2.167 5.686-2.167zm5.821 19.848c0 1.139-2.381 2.358-5.733 2.358-3.44 0-5.733-1.22-5.733-2.358v-1.324a10.434 10.434 0 0 0 5.645 1.4v.006a10.4 10.4 0 0 0 5.821-1.527zm0-3.5c0 1.138-2.381 2.358-5.733 2.358-3.44 0-5.733-1.22-5.733-2.358V43.9a10.434 10.434 0 0 0 5.645 1.4 10.4 10.4 0 0 0 5.821-1.527zm0-3.5c0 1.138-2.381 2.358-5.733 2.358-3.44 0-5.733-1.22-5.733-2.358V40.4a10.434 10.434 0 0 0 5.645 1.4 10.4 10.4 0 0 0 5.821-1.527zm12.7-31.148c0 1.139-2.381 2.358-5.733 2.358-3.439 0-5.732-1.219-5.733-2.358V9.254a10.433 10.433 0 0 0 5.645 1.4 10.405 10.405 0 0 0 5.821-1.527zm0-3.494c0 1.138-2.382 2.357-5.733 2.357-3.44 0-5.733-1.22-5.733-2.358V5.757a10.432 10.432 0 0 0 5.646 1.4 10.11 10.11 0 0 0 5.82-1.557zm-5.82-5.939c3.352 0 5.733 1.3 5.733 2.358 0 1.138-2.381 2.358-5.733 2.358-3.083 0-5.231-.98-5.646-2v-.276a.609.609 0 0 0-.05-.226c.192-1.094 2.484-2.213 5.696-2.213z"/><path d="M27.165 56.925a.9.9 0 0 0-1.235 0 .745.745 0 0 0 0 1.138L27.6 59.6c-14.322-.217-25.836-5.576-25.836-12.108 0-2.846 2.2-5.611 6.262-7.807a.791.791 0 0 0 .353-1.138.933.933 0 0 0-1.235-.325C2.558 40.742 0 43.995 0 47.41c0 7.57 12.027 13.5 27.531 13.732l-1.6 1.475a.745.745 0 0 0 0 1.139.834.834 0 0 0 .617.244 1 1 0 0 0 .617-.244l3.087-2.846a.745.745 0 0 0 0-1.138zM45.255 16.5c-.455-1.784-3.346-3.085-6.986-3.085-3.966 0-7.052 1.543-7.056 3.574v28c0 2.033 3.087 3.578 7.056 3.578 3.225 0 5.867-1.02 6.84-2.493a2.326 2.326 0 0 0 .391-1.1V17a.607.607 0 0 0-.245-.5zm-12.631 2.675a10.433 10.433 0 0 0 5.645 1.4 10.153 10.153 0 0 0 5.821-1.519v1.438c0 1.138-2.381 2.358-5.733 2.358-3.44 0-5.733-1.22-5.733-2.358zm11.466 8.31c0 1.138-2.381 2.358-5.733 2.358-3.44 0-5.732-1.22-5.733-2.358v-1.318a10.434 10.434 0 0 0 5.645 1.4 10.456 10.456 0 0 0 5.821-1.492zm-5.821 3.579a10.456 10.456 0 0 0 5.821-1.492v1.409c0 1.139-2.381 2.358-5.733 2.358-3.44 0-5.732-1.22-5.733-2.358v-1.316a10.434 10.434 0 0 0 5.645 1.399zm0 3.5a10.456 10.456 0 0 0 5.821-1.492v1.41c0 1.139-2.381 2.358-5.733 2.358-3.44 0-5.732-1.22-5.733-2.358v-1.32a10.434 10.434 0 0 0 5.645 1.4zm0 3.5a10.456 10.456 0 0 0 5.821-1.492v1.41c0 1.139-2.381 2.358-5.733 2.358-3.44 0-5.732-1.22-5.733-2.358v-1.323a10.434 10.434 0 0 0 5.645 1.4zm0 3.5a10.456 10.456 0 0 0 5.821-1.492v1.41c0 1.138-2.381 2.358-5.733 2.358-3.44 0-5.732-1.22-5.733-2.358v-1.326a10.434 10.434 0 0 0 5.645 1.4zm0 3.5a10.456 10.456 0 0 0 5.821-1.492v1.4a.949.949 0 0 1-.109.428c-.5 1-2.691 1.93-5.624 1.93-3.44 0-5.733-1.22-5.733-2.358v-1.32a10.434 10.434 0 0 0 5.645 1.4zm5.821-21.076c0 1.139-2.381 2.358-5.733 2.358-3.44 0-5.732-1.22-5.733-2.358v-1.316a10.434 10.434 0 0 0 5.645 1.4 10.456 10.456 0 0 0 5.821-1.492zm-5.821-9.35C41.621 14.638 44 15.858 44 17s-2.381 2.358-5.733 2.358c-3.08 0-5.227-.978-5.645-2V17a.6.6 0 0 0-.041-.184c.242-1.086 2.519-2.178 5.688-2.178z"/></symbol><symbol id="arrow-down-icon" viewBox="0 0 22.379 11.547"><title>arrow-down-icon</title><path d="M11.552 11.547a1.493 1.493 0 0 1-1.015-.4L0 1.472 1.352 0l10.187 9.355 9.437-9.33 1.4 1.422-9.772 9.665a1.5 1.5 0 0 1-1.052.435z"/></symbol><symbol id="arrow-right-btn" viewBox="0 0 23 7.528"><title>arrow-right-btn</title><path d="M22.85 3.4L19.6.15a.511.511 0 1 0-.723.723l2.38 2.38H0v1.022h21.255l-2.38 2.38a.511.511 0 0 0 .723.723l3.252-3.253a.511.511 0 0 0 0-.725z"/></symbol><symbol id="audit-icon" viewBox="0 0 59.723 64"><title>audit-icon</title><path d="M19.395 27.363a2.631 2.631 0 1 1 5.105-1.152l9.473 2.038a2.643 2.643 0 0 1 2.191-1.309l1.308-4.815A2.688 2.688 0 0 1 36.414 20a2.635 2.635 0 0 1 5.27-.074l3.308 1.263a2.632 2.632 0 0 1 1.977-.922 2.661 2.661 0 0 1 2.639 2.667 2.554 2.554 0 0 1-2.639 2.666 2.661 2.661 0 0 1-2.639-2.667c0-.022.006-.042.006-.064l-3.2-1.213a2.68 2.68 0 0 1-2 1l-1.333 4.81a2.688 2.688 0 0 1 1.07 2.132 2.633 2.633 0 0 1-5.232.452l-9.478-2.061a2.686 2.686 0 0 1-2.263 1.255 2.578 2.578 0 0 1-1.417-.426l-9.207 6.915h41.938V1.778H6.333v33.955h1.994zm-7.608-5.052a2.585 2.585 0 0 1 1.513.489l8.207-7.346a2.643 2.643 0 1 1 5.058-1.05 2.312 2.312 0 0 1-.108.814l2.119 1.966a2.568 2.568 0 0 1 2.822.088l9.8-9.766a2.624 2.624 0 1 1 2.345 1.476 2.579 2.579 0 0 1-1.112-.255L32.389 18.6a2.645 2.645 0 0 1 .156.864 2.605 2.605 0 0 1-2.639 2.667 2.665 2.665 0 0 1-2.435-3.687L25.443 16.6a2.687 2.687 0 0 1-1.519.472 2.578 2.578 0 0 1-1.418-.427l-8.258 7.4a2.629 2.629 0 1 1-2.462-1.733z" fill="none"/><path d="M23.221 26.489a1.252 1.252 0 0 0-1.321-1.334 1.333 1.333 0 0 0 0 2.667 1.36 1.36 0 0 0 1.321-1.333zM11.786 26.222a1.333 1.333 0 0 0 0-2.667 1.333 1.333 0 0 0 0 2.667zM23.925 15.644a1.36 1.36 0 0 0 1.319-1.333 1.252 1.252 0 0 0-1.319-1.333 1.333 1.333 0 0 0 0 2.667zM29.906 20.711a1.333 1.333 0 0 0 0-2.667 1.333 1.333 0 0 0 0 2.667zM43.539 7.556a1.3 1.3 0 0 0 1.319-1.333 1.36 1.36 0 0 0-1.319-1.333 1.3 1.3 0 0 0-1.319 1.333 1.3 1.3 0 0 0 1.319 1.333zM57.085 40.178v-2.667H2.463v2.667h54.622zM48.289 22.844a1.252 1.252 0 0 0-1.319-1.333 1.333 1.333 0 1 0 1.319 1.333zM37.558 29.511a1.36 1.36 0 0 0-1.319-1.333 1.333 1.333 0 0 0 0 2.667 1.36 1.36 0 0 0 1.319-1.334zM32.923 41.956h-6.346a1.046 1.046 0 0 1-.1.266L14.026 62.578h31.408l-12.45-20.445a.846.846 0 0 1-.061-.177zM39.053 21.244a1.36 1.36 0 0 0 1.319-1.333 1.252 1.252 0 0 0-1.319-1.333 1.333 1.333 0 0 0 0 2.667z" fill="none"/><path d="M11.786 27.644a2.649 2.649 0 0 0 2.462-3.6l8.258-7.4a2.578 2.578 0 0 0 1.418.427 2.687 2.687 0 0 0 1.519-.472l2.027 1.851a2.665 2.665 0 0 0 2.435 3.687 2.605 2.605 0 0 0 2.639-2.667 2.645 2.645 0 0 0-.156-.864l10.039-9.88a2.579 2.579 0 0 0 1.112.255A2.7 2.7 0 1 0 41.194 7.5l-9.8 9.766a2.568 2.568 0 0 0-2.822-.088l-2.119-1.966a2.312 2.312 0 0 0 .108-.814 2.639 2.639 0 1 0-5.058 1.05L13.3 22.8a2.585 2.585 0 0 0-1.512-.486 2.667 2.667 0 0 0 0 5.333zM43.539 4.889a1.36 1.36 0 0 1 1.319 1.333 1.319 1.319 0 1 1-1.319-1.333zM29.906 18.044a1.333 1.333 0 0 1 0 2.667 1.333 1.333 0 0 1 0-2.667zm-5.981-5.066a1.252 1.252 0 0 1 1.319 1.333 1.36 1.36 0 0 1-1.319 1.333 1.333 1.333 0 0 1 0-2.667zM11.786 23.555a1.333 1.333 0 0 1 0 2.667 1.333 1.333 0 0 1 0-2.667z"/><path d="M59.02 62.578H47.248a.892.892 0 0 0-.1-.623l-12.178-20h23a.886.886 0 0 0 .88-.889v-4.444a.835.835 0 0 0-.88-.889h-2.996V.889a.835.835 0 0 0-.88-.889H5.453a.835.835 0 0 0-.88.889v34.845h-2.99a.835.835 0 0 0-.88.889v4.444a.835.835 0 0 0 .88.889h22.963L12.314 62.044a.988.988 0 0 0-.132.534H.7A.711.711 0 0 0 .7 64h58.32a.711.711 0 0 0 0-1.422zM6.333 1.778h46.881v33.955H11.278l9.207-6.915a2.578 2.578 0 0 0 1.417.426 2.686 2.686 0 0 0 2.266-1.253l9.478 2.061a2.633 2.633 0 0 0 5.232-.452 2.688 2.688 0 0 0-1.07-2.132l1.333-4.81a2.68 2.68 0 0 0 2-1l3.2 1.213c0 .022-.006.042-.006.064a2.661 2.661 0 0 0 2.634 2.665 2.554 2.554 0 0 0 2.639-2.667 2.661 2.661 0 0 0-2.639-2.667 2.632 2.632 0 0 0-1.977.922l-3.308-1.263a2.635 2.635 0 0 0-5.27.074 2.688 2.688 0 0 0 1.061 2.125l-1.307 4.816a2.643 2.643 0 0 0-2.191 1.309L24.5 26.211a2.631 2.631 0 1 0-5.109 1.152l-11.064 8.37H6.333zm14.249 24.711a1.3 1.3 0 0 1 1.318-1.334 1.252 1.252 0 0 1 1.319 1.333 1.36 1.36 0 0 1-1.319 1.334 1.3 1.3 0 0 1-1.318-1.333zm14.337 3.022a1.3 1.3 0 0 1 1.319-1.333 1.333 1.333 0 0 1 0 2.667 1.3 1.3 0 0 1-1.319-1.334zm2.815-9.6a1.3 1.3 0 0 1 1.319-1.333 1.252 1.252 0 0 1 1.319 1.333 1.36 1.36 0 0 1-1.319 1.333 1.3 1.3 0 0 1-1.319-1.333zm7.916 2.933a1.3 1.3 0 0 1 1.319-1.333 1.252 1.252 0 0 1 1.319 1.333 1.319 1.319 0 1 1-2.639 0zM2.463 40.178v-2.667h54.622v2.667H2.463zm11.563 22.4l12.449-20.356a1.046 1.046 0 0 0 .1-.266h6.346a.846.846 0 0 0 .061.177l12.45 20.445z"/></symbol><symbol id="business-consulting-icon" viewBox="0 0 55.403 64"><title>business-consulting-icon</title><path d="M11.792 14.088a.67.67 0 0 0-.842.466l-.562 1.773a.667.667 0 0 0 .468.84h.187a.7.7 0 0 0 .657-.467l.561-1.773a.667.667 0 0 0-.469-.839zM9.172 22.484h.187a.7.7 0 0 0 .655-.466l.562-1.773a.681.681 0 0 0-1.31-.373L8.7 21.645a.667.667 0 0 0 .472.839zM7.487 27.9h.187a.7.7 0 0 0 .655-.467l.562-1.773a.681.681 0 0 0-1.31-.373L7.02 27.06a.667.667 0 0 0 .467.84zM6.738 30.134a.67.67 0 0 0-.838.466l-.562 1.773a.667.667 0 0 0 .468.84h.184a.7.7 0 0 0 .655-.466l.562-1.773a.667.667 0 0 0-.469-.84zM5.054 35.452a.67.67 0 0 0-.842.466l-.562 1.773a.667.667 0 0 0 .468.84h.187a.741.741 0 0 0 .749-.466l.468-1.773a.667.667 0 0 0-.468-.84zM41.552 49.352H20.963A13.758 13.758 0 0 0 7.206 63.067a.883.883 0 0 0 .936.933.883.883 0 0 0 .936-.933 11.884 11.884 0 0 1 11.885-11.849h20.589a11.884 11.884 0 0 1 11.886 11.849.936.936 0 0 0 1.872 0 13.758 13.758 0 0 0-13.758-13.715zM48.665 12.6a.81.81 0 0 0 .562.28.606.606 0 0 0 .468-.187.737.737 0 0 0 .094-1.026l-1.124-1.497a.73.73 0 0 0-1.123.933zM44.079 6.718L45.2 8.211a.81.81 0 0 0 .562.28.606.606 0 0 0 .468-.187.737.737 0 0 0 .094-1.026L45.2 5.785a.73.73 0 0 0-1.123.933zM50.537 29.388h.094a.815.815 0 0 0 .749-.56l.281-1.866a.726.726 0 0 0-.562-.84.683.683 0 0 0-.842.56l-.281 1.866a.726.726 0 0 0 .561.84zM50.162 31.627a.683.683 0 0 0-.842.56l-.281 1.866a.726.726 0 0 0 .562.84h.094a.815.815 0 0 0 .749-.56l.281-1.866a.727.727 0 0 0-.563-.84zM51.192 21.084l-.281 1.866a.726.726 0 0 0 .562.84h.094a.711.711 0 0 0 .749-.56l.281-1.866a.716.716 0 0 0-1.4-.28zM48.759 40.4a.815.815 0 0 0 .749-.56l.281-1.866a.716.716 0 0 0-1.4-.28l-.289 1.863a.726.726 0 0 0 .562.84zM12.541 38.624c.187 0 .281 0 .281-.093l1.685-.84a.689.689 0 1 0-.655-1.213l-1.684.84a.646.646 0 0 0-.281.933.707.707 0 0 0 .654.373zM7.861 41.143l1.685-.84a.689.689 0 1 0-.655-1.213l-1.685.84a.646.646 0 0 0-.281.933.707.707 0 0 0 .655.373c.188 0 .281 0 .281-.093zM43.611 20.711l-1.685.84a.646.646 0 0 0-.281.933.707.707 0 0 0 .655.373c.094 0 .187-.093.281-.093l1.685-.84a.689.689 0 1 0-.655-1.213zM47.261 20.151a.344.344 0 0 0 .281-.093l1.685-.84a.689.689 0 1 0-.655-1.213l-1.685.84a.646.646 0 0 0-.281.933.707.707 0 0 0 .655.373zM23.771 31.254l-1.685.84a.646.646 0 0 0-.281.933.707.707 0 0 0 .655.373.945.945 0 0 0 .281-.093l1.685-.84a.689.689 0 1 0-.655-1.213zM29.479 22.484h.094a10.207 10.207 0 0 1 1.685-.093h.094a.722.722 0 0 0 .655-.746.737.737 0 0 0-.749-.746 14.114 14.114 0 0 0-1.872.187.727.727 0 0 0-.562.84.625.625 0 0 0 .655.558z"/><path d="M12.915 13.154a2.611 2.611 0 0 0 .978-.193l8.869 11.11a12.628 12.628 0 0 0-4.232 9.421c0 .169.019.333.025.5l-1.429.712a.646.646 0 0 0-.281.933.707.707 0 0 0 .655.373c.187 0 .281 0 .281-.093l.918-.458a12.716 12.716 0 1 0 20.968-11.466.777.777 0 0 0-.08-.389.626.626 0 0 0-.8-.321 12.735 12.735 0 0 0-1.234-.806l4.06-17.069h.033a2.706 2.706 0 1 0-2.681-3.029L15.234 9.064a2.707 2.707 0 1 0-2.319 4.091zm24.707 12.222l.58-.289a10.863 10.863 0 1 1-14.317.39l1.632 2.045h-.435a.746.746 0 1 0 0 1.493h2.713l-.748.373a.646.646 0 0 0-.281.933.707.707 0 0 0 .655.373c.094 0 .281 0 .281-.093l1.685-.84a.617.617 0 0 0 .34-.746h7.708a.8.8 0 0 0 .749-.746.737.737 0 0 0-.749-.746h-1.089l.527-2.214a.673.673 0 0 0 .467.162.344.344 0 0 0 .282-.095zM41.646 1.4a1.277 1.277 0 0 1 1.31 1.306 1.31 1.31 0 0 1-2.62 0 1.277 1.277 0 0 1 1.31-1.306zm-2.482 2.393a2.712 2.712 0 0 0 1.143 1.252l-4.018 16.8c-.03-.013-.061-.022-.092-.033 0 .012 0 .024-.007.035a6.926 6.926 0 0 0-.814-.3.738.738 0 1 0-.468 1.4c.367.122.7.255 1.039.4a1.82 1.82 0 0 1-.139.237c.018.008.038.014.057.023l-.935 3.909H33.6l.749-.373a.689.689 0 1 0-.655-1.213l-1.685.84a.617.617 0 0 0-.34.746h-4.32l-2.34-2.957.02-.012a.946.946 0 0 1-.106-.1A8.275 8.275 0 0 1 26.3 23.6a.689.689 0 1 0-.655-1.213 15.141 15.141 0 0 0-1.563.947 1.842 1.842 0 0 1-.142-.2l-.041.026-8.821-11.142a3.035 3.035 0 0 0 .551-1.569v-.046zM12.915 9.236a1.4 1.4 0 0 1 1.31 1.306 1.31 1.31 0 1 1-1.31-1.306zM52.689 19.312a2.774 2.774 0 0 0 2.711-2.706 2.714 2.714 0 1 0-2.714 2.706zm0-4.012A1.489 1.489 0 0 1 54 16.606a1.31 1.31 0 1 1-1.31-1.306zM45.109 45.155a2.714 2.714 0 1 0 2.714-2.706 2.712 2.712 0 0 0-2.714 2.706zm4.024.093a1.31 1.31 0 1 1-1.31-1.306 1.277 1.277 0 0 1 1.31 1.306zM2.714 40.491a2.706 2.706 0 1 0 0 5.411A2.84 2.84 0 0 0 5.428 43.2a2.712 2.712 0 0 0-2.714-2.709zm0 4.012a1.306 1.306 0 1 1 0-2.612 1.489 1.489 0 0 1 1.31 1.309 1.277 1.277 0 0 1-1.31 1.3z"/></symbol><symbol id="facebook-icon" viewBox="0 0 35 35"><title>facebook-icon</title><path d="M0 0v35h35V0zm23.154 9.632h-2.736a1.184 1.184 0 0 0-1.089.977V13.4h3.819c-.154 2.139-.469 4.1-.469 4.1H19.31v12.115h-5.02V17.492h-2.444v-4.079h2.444v-3.335c0-.61-.124-4.693 5.144-4.693h3.72v4.247z"/></symbol><symbol id="google-plus-icon" viewBox="0 0 35 35"><title>google-plus-icon</title><path d="M0 0v35h35V0zm20.4 18.972a7 7 0 0 1-7.325 6.186 7.722 7.722 0 1 1 0-15.444 7.326 7.326 0 0 1 5.186 2.014l-2.216 2.216a4.075 4.075 0 0 0-2.97-1.159 4.637 4.637 0 0 0-4.546 4.65 4.583 4.583 0 0 0 4.546 4.59 3.881 3.881 0 0 0 4.157-3.053h-4.154v-3.1h7.306a9.05 9.05 0 0 1 .132 1.564 10.2 10.2 0 0 1-.116 1.536zm9.274-.962h-2.703v2.7h-1.922v-2.7h-2.706v-1.922h2.706v-2.706h1.922v2.706h2.706z"/></symbol><symbol id="internal-control-icon" viewBox="0 0 71.567 61.647"><title>internal-control-icon</title><path d="M69.441 49.317L55.787 35.643a24.534 24.534 0 0 0-4.364-28.47 24.022 24.022 0 0 0-34.245 0A24.266 24.266 0 0 0 34.3 48.645a24.8 24.8 0 0 0 11.3-2.8l13.657 13.672a7.375 7.375 0 0 0 5.148 2.13 7.506 7.506 0 0 0 5.036-2.018 7.314 7.314 0 0 0 0-10.312zm-1.455 8.63A5.385 5.385 0 0 1 64.4 59.4a4.724 4.724 0 0 1-3.581-1.457l-14.208-14.23a1.015 1.015 0 0 0-.783-.336c-.224 0-.448 0-.56.224a21.726 21.726 0 0 1-25.825-3.053l1.317-1.319A.871.871 0 0 0 19.528 38l-1.309 1.311a22.129 22.129 0 0 1 .638-30.565 21.373 21.373 0 0 1 15.556-6.5 22.088 22.088 0 0 1 19.136 32.949 1.193 1.193 0 0 0 .224 1.345l14.213 14.234a5.4 5.4 0 0 1 1.455 3.587 4.738 4.738 0 0 1-1.455 3.587z"/><path d="M34.413 7.4a16.757 16.757 0 0 0-11.863 4.93 17.007 17.007 0 0 0-4.924 11.881 16.825 16.825 0 0 0 16.787 16.812 16.6 16.6 0 0 0 11.862-5.043A16.757 16.757 0 0 0 34.413 7.4zm10.631 27.571a15.089 15.089 0 0 1-20.617.585l1.145-1.146a.871.871 0 1 0-1.231-1.233L23.2 34.323a15.037 15.037 0 1 1 21.848.648z"/><path d="M34.3 10.648a13.272 13.272 0 0 0-9.512 3.923.871.871 0 1 0 1.231 1.229 11.879 11.879 0 0 1 16.787 16.816.881.881 0 0 0 0 1.233.854.854 0 0 0 .56.224c.224 0 .448 0 .448-.336A13.506 13.506 0 0 0 34.3 10.648z"/><path d="M31.616 21.521a4.063 4.063 0 0 0 0 5.716 3.971 3.971 0 0 0 2.8 1.121 4.973 4.973 0 0 0 2.91-1.121 4.039 4.039 0 1 0-5.707-5.716zm4.365 4.371a2.22 2.22 0 0 1-2.422.518l1.525-1.528a.871.871 0 1 0-1.231-1.233l-1.567 1.569v.008a2.29 2.29 0 0 1 2.133-3.257 2.03 2.03 0 0 1 1.567.672 2.3 2.3 0 0 1-.005 3.251zM10.016 47.524l-1.567 1.569a.881.881 0 0 0 0 1.233.854.854 0 0 0 .56.224 1.589 1.589 0 0 0 .671-.224l1.567-1.569a.871.871 0 0 0-1.231-1.233zM14.828 42.7l-1.567 1.569a.88.88 0 0 0 0 1.233.854.854 0 0 0 .56.224 1.589 1.589 0 0 0 .671-.224l1.567-1.569a.871.871 0 0 0-1.231-1.233zM29.041 28.469l-1.567 1.569a.88.88 0 0 0 0 1.233.854.854 0 0 0 .559.224 1.589 1.589 0 0 0 .672-.224l1.567-1.571a.871.871 0 1 0-1.231-1.233zM1.175 52.344a4.064 4.064 0 0 0 0 5.716 3.972 3.972 0 0 0 2.8 1.121 4.973 4.973 0 0 0 2.91-1.121 4.039 4.039 0 0 0-5.707-5.716z"/></symbol><symbol id="it-audit-icon" viewBox="0 0 63.323 64"><title>it-audit-icon</title><path d="M21.306 3.21a.361.361 0 0 0 .3-.1l1.784-.6a.719.719 0 0 0 .5-.9.708.708 0 0 0-.892-.5c-.595.2-1.288.4-1.883.6a.882.882 0 0 0-.5 1 .746.746 0 0 0 .691.5zM16.054 5.618c.1 0 .2 0 .5-.2.595-.3 1.09-.6 1.685-.9a.785.785 0 0 0 .3-1 .766.766 0 0 0-.991-.3c-.595.3-1.189.7-1.784 1a.7.7 0 0 0-.3 1 .544.544 0 0 0 .59.4zM56.882 48.552c-.4.6-.694 1.1-1.09 1.6a.784.784 0 0 0 .2 1c.1.1.2.1.4.1.3 0 .5-.1.5-.2.4-.6.793-1.1 1.189-1.705a.784.784 0 0 0-.2-1 .762.762 0 0 0-.999.205zM49.053 56.777a15.108 15.108 0 0 1-1.586 1.1.76.76 0 0 0-.2 1 .544.544 0 0 0 .595.4c.1 0 .3 0 .3-.2a9.8 9.8 0 0 0 1.685-1.1.691.691 0 0 0 .2-1 .673.673 0 0 0-.994-.2zM53.314 52.966a18.41 18.41 0 0 1-1.387 1.4.794.794 0 0 0 0 1.1 1.4 1.4 0 0 0 .595.2.752.752 0 0 0 .5-.2 18.421 18.421 0 0 0 1.387-1.4.794.794 0 0 0 0-1.1.771.771 0 0 0-1.095 0zM44.1 59.687c-.595.2-1.189.5-1.784.7a.826.826 0 0 0-.4 1 .746.746 0 0 0 .694.5h.2c.694-.3 1.288-.5 1.883-.8a.736.736 0 0 0 .4-1 .721.721 0 0 0-.993-.4zM27.053 1.806h.1c.595-.1 1.288-.1 1.883-.2a.772.772 0 0 0 .694-.8.769.769 0 0 0-.793-.7 13.269 13.269 0 0 0-1.982.2.781.781 0 0 0-.595.9.666.666 0 0 0 .693.6zM32.9 1.5a13.784 13.784 0 0 1 1.982.1.865.865 0 0 0 .793-.6.772.772 0 0 0-.694-.8A12.06 12.06 0 0 0 33 0a.769.769 0 0 0-.793.7.772.772 0 0 0 .693.8zM58.963 16.251a15.136 15.136 0 0 0-.991-1.705.762.762 0 0 0-.991-.2.784.784 0 0 0-.2 1 8.68 8.68 0 0 1 .991 1.6.746.746 0 0 0 .694.4c.2 0 .3 0 .2-.1a.7.7 0 0 0 .297-.995zM60.548 42.834a.721.721 0 0 0-.991.4c-.3.6-.5 1.2-.793 1.806a.826.826 0 0 0 .4 1 .361.361 0 0 0 .3.1.746.746 0 0 0 .694-.4c.3-.7.5-1.3.793-1.906a.736.736 0 0 0-.403-1zM54.6 12.238a.852.852 0 0 0 .594.3 1.663 1.663 0 0 0 .5-.2.8.8 0 0 0 .1-1.1c-.5-.5-.892-1-1.387-1.5a.771.771 0 0 0-1.09 0 .794.794 0 0 0 0 1.1 8.622 8.622 0 0 1 1.283 1.4zM60.152 22.37a.746.746 0 0 0 .694.5c.1 0 .2 0 .2-.1a.719.719 0 0 0 .5-.9 14.74 14.74 0 0 0-.694-1.906.721.721 0 0 0-.991-.4.736.736 0 0 0-.4 1 13.49 13.49 0 0 1 .691 1.806zM61.143 25.981c.1.6.2 1.3.3 1.906a.682.682 0 0 0 .694.7c.595 0 .793-.4.793-.9-.1-.7-.2-1.3-.3-2.006a.772.772 0 0 0-.892-.6.781.781 0 0 0-.595.9zM50.44 8.125c.2.1.3.2.5.2a.544.544 0 0 0 .5-.3.793.793 0 0 0-.1-1.1c-.5-.4-.991-.8-1.586-1.2a.762.762 0 0 0-.991.2.784.784 0 0 0 .2 1zM62.034 37.116a.772.772 0 0 0-.892.6 10.765 10.765 0 0 1-.4 1.906.719.719 0 0 0 .5.9h.2a.784.784 0 0 0 .793-.5c.1-.7.3-1.3.4-2.006a.781.781 0 0 0-.601-.9zM44 4.113c.595.3 1.09.6 1.685.9a.741.741 0 0 0 .4.1.734.734 0 0 0 .595-.5.7.7 0 0 0-.3-1l-1.784-.9a.808.808 0 0 0-.991.4.826.826 0 0 0 .395 1zM62.53 31.1a.787.787 0 0 0-.793.8v.1c0 .6-.1 1.3-.1 1.906a.659.659 0 0 0 .694.8.954.954 0 0 0 .892-.7 12.942 12.942 0 0 0 .1-2.006v-.1a.786.786 0 0 0-.793-.8zM38.549 2.307a10.353 10.353 0 0 1 1.883.5h.2a.726.726 0 0 0 .694-.6.719.719 0 0 0-.5-.9c-.694-.2-1.288-.3-1.982-.5a.772.772 0 0 0-.892.6.781.781 0 0 0 .597.9zM16.45 58.383a13.862 13.862 0 0 1-1.586-1 .763.763 0 0 0-.991.2.784.784 0 0 0 .2 1 9.8 9.8 0 0 0 1.685 1.1.59.59 0 0 0 .4.1.616.616 0 0 0 .595-.4.721.721 0 0 0-.303-1zM11.3 9.129a1.524 1.524 0 0 0 .595-.3l1.486-1.2a.8.8 0 0 0 .1-1.1.778.778 0 0 0-1.09-.1c-.595.4-1.09.9-1.586 1.3a.8.8 0 0 0-.1 1.1.853.853 0 0 0 .595.3zM5.45 15.248a.7.7 0 0 0-.991.3 16.306 16.306 0 0 0-.991 1.806.7.7 0 0 0 .3 1 .361.361 0 0 0 .3.1c.3 0 .5-.2.793-.5.3-.6.595-1.1.892-1.705a.721.721 0 0 0-.303-1.001zM6.639 49.354a.673.673 0 0 0-.991-.2.691.691 0 0 0-.2 1c.4.5.793 1.1 1.189 1.605a.853.853 0 0 0 .595.3h.4a.8.8 0 0 0 .1-1.1c-.399-.602-.696-1.103-1.093-1.605zM10.405 53.668a.771.771 0 0 0-1.09 0 .794.794 0 0 0 0 1.1 19.111 19.111 0 0 0 1.486 1.4c.2.1.3.2.5.2a.6.6 0 0 0 .595-.3.907.907 0 0 0-.1-1.1 16.541 16.541 0 0 1-1.391-1.3zM27.252 62.194c-.595-.1-1.288-.2-1.883-.3a.772.772 0 0 0-.892.6.781.781 0 0 0 .595.9c.694.1 1.288.2 1.982.3h.1a.763.763 0 0 0 .1-1.5zM38.747 61.592a12.616 12.616 0 0 1-1.883.4.781.781 0 0 0-.595.9.665.665 0 0 0 .694.6h.1a13.887 13.887 0 0 0 1.982-.4.711.711 0 0 0 .595-.9.7.7 0 0 0-.893-.6zM33.1 62.5h-1.984a.769.769 0 0 0-.793.7.712.712 0 0 0 .694.8H33.2a.754.754 0 0 0-.1-1.5zM21.8 60.89c-.595-.2-1.189-.5-1.784-.7a.721.721 0 0 0-.991.4.736.736 0 0 0 .4 1c.595.2 1.288.5 1.883.7h.2a1.218 1.218 0 0 0 .793-.4.83.83 0 0 0-.501-1zM3.865 44.238a.721.721 0 0 0-.991-.4.736.736 0 0 0-.4 1l.892 1.806a.746.746 0 0 0 .694.4c.1 0 .3 0 .3-.1a.785.785 0 0 0 .3-1c-.3-.502-.498-1.104-.795-1.706zM1.685 23.975h.2a1.009 1.009 0 0 0 .793-.5l.595-1.806a.83.83 0 0 0-.5-1 .815.815 0 0 0-.991.5c-.2.6-.4 1.2-.595 1.906a.719.719 0 0 0 .498.9zM7.234 13.442c.2 0 .4-.1.694-.4l1.189-1.5a.908.908 0 0 0-.1-1.1.88.88 0 0 0-1.09.1c-.4.5-.892 1.1-1.288 1.6a.793.793 0 0 0 .1 1.1c.198.1.297.2.495.2zM.793 29.793a.865.865 0 0 0 .793-.6 12.431 12.431 0 0 1 .2-1.906.732.732 0 0 0-.595-.9.772.772 0 0 0-.892.6c-.1.7-.1 1.3-.2 2.006a.659.659 0 0 0 .694.8zM2.676 40.627a13.5 13.5 0 0 1-.5-1.906.772.772 0 0 0-.892-.6.781.781 0 0 0-.595.9 11.856 11.856 0 0 0 .5 2.006.746.746 0 0 0 .694.5h.3a.719.719 0 0 0 .493-.9zM1.586 34.809c0-.6-.1-1.3-.1-1.906a.769.769 0 0 0-.793-.7A.772.772 0 0 0 0 33a13.6 13.6 0 0 0 .1 2.006.682.682 0 0 0 .694.7.816.816 0 0 0 .792-.897zM56.089 31.8a24.96 24.96 0 0 0-5.616-15.85h1.653a.8.8 0 0 0 0-1.605h-3.668a.787.787 0 0 0-.793.8v3.712a.786.786 0 0 0 .793.8.749.749 0 0 0 .694-.7v-2.165A24.03 24.03 0 0 1 54.6 31.9a23.311 23.311 0 0 1-19.917 23.147 3.374 3.374 0 1 0-3.171 4.539 3.412 3.412 0 0 0 3.322-2.941A24.75 24.75 0 0 0 56.089 31.8z"/><path d="M49.944 32a18.511 18.511 0 0 0-18.431-18.659A18.511 18.511 0 0 0 13.081 32a18.433 18.433 0 1 0 36.864 0zm-2.032-1H40.9c-.149-6.363-1.849-11.77-4.384-14.864A16.555 16.555 0 0 1 47.913 31zm-17.39-15.481V31H24.1c.2-7.8 2.951-14.4 6.422-15.481zm0 17.483v15.277c-3.441-1.067-6.174-7.564-6.416-15.279zM32.5 48.28V33h6.416c-.238 7.715-2.971 14.212-6.416 15.28zm0-17.28V15.517c3.472 1.064 6.222 7.6 6.42 15.479zm-6-14.864c-2.536 3.094-4.235 8.5-4.384 14.864h-7.004a16.555 16.555 0 0 1 11.393-14.869zM15.112 33h7.014c.185 6.466 1.974 11.924 4.609 14.936A16.55 16.55 0 0 1 15.112 33zm21.211 14.93c2.64-3.03 4.394-8.511 4.577-14.93h7.013a16.552 16.552 0 0 1-11.59 14.93z"/><path d="M17.937 47.348a.787.787 0 0 0-.793.8v2.107a23.432 23.432 0 0 1 11.169-41.4 3.33 3.33 0 0 0 3.2 2.379 3.426 3.426 0 0 0 3.369-3.411 3.362 3.362 0 0 0-6.682-.57A25 25 0 0 0 15.918 51.16h-1.747a.734.734 0 0 0-.793.8.786.786 0 0 0 .793.8h3.667q.595 0 .892-.9v-3.71a.786.786 0 0 0-.793-.802z"/></symbol><symbol id="it-doors-logo" viewBox="0 0 74.84 27.49"><title>IT-Doors-logo</title><path d="M40.85 9.41a7.81 7.81 0 0 0-3.67-.64h-4.29v10.08h4.3a8 8 0 0 0 3.71-.61 2.43 2.43 0 0 0 1.1-2.31v-4.1a2.55 2.55 0 0 0-1.15-2.42zm-1.31 6.52a.94.94 0 0 1-.53 1 5.92 5.92 0 0 1-1.93.21h-1.77V10.5h1.85a4.36 4.36 0 0 1 1.78.28 1 1 0 0 1 .59 1zM51 17.52a3 3 0 0 0 .23-1.25v-2.22a3.3 3.3 0 0 0-.23-1.33 2.29 2.29 0 0 0-.59-.85 2.47 2.47 0 0 0-.91-.46 5.23 5.23 0 0 0-1-.2h-2.16a5.22 5.22 0 0 0-1 .2 2.49 2.49 0 0 0-.91.46 2.3 2.3 0 0 0-.59.85 3.3 3.3 0 0 0-.24 1.33v2.22a3 3 0 0 0 .23 1.25 2.2 2.2 0 0 0 .57.81 2.37 2.37 0 0 0 .89.44 5.53 5.53 0 0 0 1 .19h2.22a5.51 5.51 0 0 0 1-.19 2.38 2.38 0 0 0 .89-.44 2.23 2.23 0 0 0 .6-.81zm-2-1a1 1 0 0 1-.3.82 3.46 3.46 0 0 1-2.5 0 1 1 0 0 1-.3-.82v-2.83a1.06 1.06 0 0 1 .31-.86 3.14 3.14 0 0 1 2.48 0 1.06 1.06 0 0 1 .31.86zM59.6 11.88a2.48 2.48 0 0 0-.91-.46 5.2 5.2 0 0 0-1-.2h-2.16a5.21 5.21 0 0 0-1 .2 2.51 2.51 0 0 0-.91.46 2.31 2.31 0 0 0-.59.85 3.31 3.31 0 0 0-.24 1.33v2.22a3 3 0 0 0 .21 1.24 2.2 2.2 0 0 0 .58.81 2.34 2.34 0 0 0 .89.44 5.51 5.51 0 0 0 1 .19h2.22a5.52 5.52 0 0 0 1-.19 2.37 2.37 0 0 0 .89-.44 2.19 2.19 0 0 0 .57-.81 3 3 0 0 0 .24-1.25v-2.22a3.29 3.29 0 0 0-.24-1.33 2.29 2.29 0 0 0-.55-.84zm-1.44 4.66a1 1 0 0 1-.3.82 3.46 3.46 0 0 1-2.5 0 1 1 0 0 1-.3-.82v-2.85a1.06 1.06 0 0 1 .31-.86 3.14 3.14 0 0 1 2.48 0 1.06 1.06 0 0 1 .31.86zM65 11.64a1.33 1.33 0 0 0-.65 1v-1.31H62.2v7.51h2.27v-4.51a1.06 1.06 0 0 1 .47-1 2.76 2.76 0 0 1 1.4-.29h.78v-1.86h-.81a2.2 2.2 0 0 0-1.31.46zM72.07 14.11h-1a.94.94 0 0 1-.6-.15.44.44 0 0 1-.19-.34v-.4a.52.52 0 0 1 .25-.51 3.26 3.26 0 0 1 1.2-.13q.31 0 2.73.19v-1.45q-1.93-.14-2.67-.14a7.77 7.77 0 0 0-2.76.39 1.41 1.41 0 0 0-1 1.41v.92a1.6 1.6 0 0 0 .66 1.39 3.1 3.1 0 0 0 1.84.48h1a1.43 1.43 0 0 1 .87.18.68.68 0 0 1 .2.54v.47a.51.51 0 0 1-.37.52 3.18 3.18 0 0 1-1 .13 23.83 23.83 0 0 1-3-.33v1.51a22.92 22.92 0 0 0 3 .23h1.11a6.45 6.45 0 0 0 1-.16 2.42 2.42 0 0 0 .83-.35 1.72 1.72 0 0 0 .53-.63 2.05 2.05 0 0 0 .21-1v-.95q-.08-1.82-2.84-1.82zM34.87 21.86q-1.74 0-1.74 1.19v2q0 1.13 1.74 1.13a3.72 3.72 0 0 0 .6 0 2.68 2.68 0 0 0 .56-.16.94.94 0 0 0 .44-.35 1 1 0 0 0 .16-.58V23q0-1.14-1.76-1.14zM36 25q0 .72-1.15.72T33.73 25v-2a.75.75 0 0 1 .1-.39.6.6 0 0 1 .27-.24 1.3 1.3 0 0 1 .36-.11 2.88 2.88 0 0 1 .43 0Q36 22.27 36 23zM40.38 25.32a.33.33 0 0 1-.19.33 1.7 1.7 0 0 1-.67.09 1.34 1.34 0 0 1-.36 0 .39.39 0 0 1-.21-.12.42.42 0 0 1-.08-.16.77.77 0 0 1 0-.19V23h-.58v2.27a.88.88 0 0 0 .23.67 1.23 1.23 0 0 0 .84.22q.93 0 1-.44v.38H41V23h-.58zM43.54 22H43v1h-.69v.38H43v1.82a1 1 0 0 0 .23.76 1.24 1.24 0 0 0 .81.2 3.83 3.83 0 0 0 .65-.05v-.38l-.46.05a.83.83 0 0 1-.52-.11.58.58 0 0 1-.13-.44v-1.87h1.11V23h-1.15zM47.33 24.26H47c-.38 0-.57-.1-.57-.31v-.26a.31.31 0 0 1 .17-.3 1.44 1.44 0 0 1 .62-.09 6 6 0 0 1 1 .09V23l-.94-.05c-.92 0-1.38.24-1.38.73v.29a.67.67 0 0 0 .25.55 1.14 1.14 0 0 0 .74.2h.35a.85.85 0 0 1 .44.08.3.3 0 0 1 .13.28v.31a.29.29 0 0 1-.19.3 1.7 1.7 0 0 1-.58.07 8.29 8.29 0 0 1-1.08-.12v.44a7.81 7.81 0 0 0 1.06.08 2.13 2.13 0 0 0 1-.19.72.72 0 0 0 .35-.69V25q-.06-.74-1.04-.74zM52.33 23.18A.66.66 0 0 0 52 23a1.87 1.87 0 0 0-.38-.07h-1a1.85 1.85 0 0 0-.38.07.67.67 0 0 0-.31.18 1 1 0 0 0-.18.33 1.56 1.56 0 0 0-.07.52v1.07a1.52 1.52 0 0 0 .09.58.6.6 0 0 0 .31.32 1.47 1.47 0 0 0 .43.13 5.61 5.61 0 0 0 .6 0h.48a1.86 1.86 0 0 0 .38-.07.7.7 0 0 0 .31-.17.82.82 0 0 0 .18-.31 1.48 1.48 0 0 0 .07-.49V24a1.59 1.59 0 0 0-.07-.52.94.94 0 0 0-.13-.3zm-.33 2a1 1 0 0 1 0 .33.3.3 0 0 1-.17.18.79.79 0 0 1-.25.07h-.38a3 3 0 0 1-.38 0 .8.8 0 0 1-.25-.07.3.3 0 0 1-.17-.18 1 1 0 0 1 0-.33v-1.25c0-.29.06-.46.17-.53a2.22 2.22 0 0 1 1.33 0q.17.1.17.53zM56.31 25.32a.33.33 0 0 1-.19.33 1.71 1.71 0 0 1-.66.09 1.35 1.35 0 0 1-.36 0 .38.38 0 0 1-.21-.12.43.43 0 0 1-.08-.16.77.77 0 0 1 0-.19V23h-.58v2.27a.88.88 0 0 0 .23.67 1.22 1.22 0 0 0 .84.22q.93 0 1-.44v.38h.58V23h-.58zM59.44 23.09a.48.48 0 0 0-.28.4V23h-.54v3.09h.58V23.9a.4.4 0 0 1 .19-.38 1.26 1.26 0 0 1 .58-.1h.32v-.49H60a1.07 1.07 0 0 0-.56.16zM62.18 25.63a.51.51 0 0 1-.16-.45v-1.27a.61.61 0 0 1 .14-.49 1.12 1.12 0 0 1 .62-.11 3.89 3.89 0 0 1 1 .13V23a4.1 4.1 0 0 0-.88-.1h-.72a.79.79 0 0 0-.3.1 1.07 1.07 0 0 0-.21.18.73.73 0 0 0-.15.3 1.84 1.84 0 0 0 0 .44v1.14a1.31 1.31 0 0 0 .08.48.83.83 0 0 0 .18.3.69.69 0 0 0 .31.16 1.77 1.77 0 0 0 .36.07h.44a4.84 4.84 0 0 0 1-.09v-.43a3.8 3.8 0 0 1-.94.12 1.31 1.31 0 0 1-.77-.04zM65.26 21.86h.57v.6h-.57zM65.26 22.99h.57v3.09h-.57zM69.16 22.92c-.62 0-1 .15-1 .44V23h-.57v3.1h.57v-2.26a.44.44 0 0 1 .17-.4 1.43 1.43 0 0 1 .68-.11 1.34 1.34 0 0 1 .36 0 .38.38 0 0 1 .2.12.47.47 0 0 1 .08.16.82.82 0 0 1 0 .19v2.24h.57v-2.23a.88.88 0 0 0-.23-.67 1.22 1.22 0 0 0-.83-.22zM74.08 23.29c-.1-.24-.41-.36-.95-.36a1.57 1.57 0 0 0-1 .24 1 1 0 0 0-.3.79v1.24a.89.89 0 0 0 .26.73 1.61 1.61 0 0 0 1 .21 2.17 2.17 0 0 0 .65-.09c.19-.06.29-.16.3-.31v.74a.53.53 0 0 1-.2.47 1.14 1.14 0 0 1-.64.14 9.9 9.9 0 0 1-1.12-.09v.41a6.65 6.65 0 0 0 1.07.07 2.13 2.13 0 0 0 1.1-.23 1 1 0 0 0 .37-.89V23h-.54zm0 2a.43.43 0 0 1-.19.41 1.4 1.4 0 0 1-.63.11 1.32 1.32 0 0 1-.63-.1.46.46 0 0 1-.16-.42v-1.4a.49.49 0 0 1 .15-.42 1.19 1.19 0 0 1 .63-.11 1.36 1.36 0 0 1 .68.11.47.47 0 0 1 .16.41zM15.12 2.4V25l12.38 2.4V0zm9.66 7.77h-2.93v8.61H20v-8.62h-2.9V8.61h7.68zM0 27.39L12.39 25V2.4L0 0zM5.64 8.61H7.5v10.17H5.64z"/></symbol><symbol id="legal-services-icon" viewBox="0 0 70.687 64"><title>legal-services-icon</title><path d="M70.561 39.3a1.034 1.034 0 0 0-.81-.537L56.523 4.834H59.4a1.074 1.074 0 1 0 0-2.148H38.884a3.755 3.755 0 0 0-7.2 0H11.347a1.074 1.074 0 1 0 0 2.148h2.88L.908 38.758A1.311 1.311 0 0 0 .1 39.3a1.125 1.125 0 0 0 .09 1.074c6.029 7.877 12.419 8.682 14.938 8.682 2.43 0 8.819-.9 14.939-8.682a.947.947 0 0 0 .09-1.074.783.783 0 0 0-.72-.537L16.206 4.834h15.479a3.485 3.485 0 0 0 1.17 1.79l-1.26 50.752c-3.87.806-6.479 2.954-6.479 5.55A1.091 1.091 0 0 0 26.2 64h18.444a1.091 1.091 0 0 0 1.08-1.074c0-2.6-2.7-4.655-6.569-5.55L37.8 6.534a3.343 3.343 0 0 0 1.08-1.79h15.663L41.314 38.758a1.312 1.312 0 0 0-.81.537 1.125 1.125 0 0 0 .09 1.074c6.029 7.877 12.419 8.682 14.938 8.682 2.43 0 8.819-.9 14.939-8.682a.934.934 0 0 0 .09-1.069zM15.217 47c-1.71 0-5.579-.448-9.9-4.3h9.9a.537.537 0 1 0 0-1.074H4.148a8.094 8.094 0 0 1-.81-.9h23.667c-4.949 5.64-9.805 6.267-11.788 6.267zm13.139-8.235H2.078L15.217 5.192zM33.665 3.67v-.179a1.645 1.645 0 0 1 1.62-1.432 1.611 1.611 0 1 1 0 3.222 1.645 1.645 0 0 1-1.62-1.432zm1.26 3.759h.81L36.9 57.018c-.54 0-1.08-.089-1.62-.089a9.836 9.836 0 0 0-1.62.089zM43.2 61.762H27.545c.99-1.432 3.96-2.775 7.829-2.775s6.84 1.343 7.826 2.775zm12.333-14.769c-1.71 0-5.579-.448-9.9-4.3h9.9a.537.537 0 1 0 0-1.074H44.554a8.088 8.088 0 0 1-.81-.9h23.667c-5.039 5.647-9.899 6.274-11.878 6.274zm-13.139-8.235L55.533 5.192l13.138 33.566z"/></symbol><symbol id="linkedin-icon" viewBox="0 0 35 35"><title>linkedin-icon</title><path d="M0 0v35h35V0zm10.747 28.874a.807.807 0 0 1-.807.807H6.505a.807.807 0 0 1-.807-.807V14.222a.807.807 0 0 1 .807-.807H9.94a.807.807 0 0 1 .807.807zm-2.53-17.7a2.929 2.929 0 1 1 2.941-2.922 2.921 2.921 0 0 1-2.941 2.922zm21.495 7.387v10.788a.335.335 0 0 1-.335.335h-4.39a.335.335 0 0 1-.335-.335V20.3a2.832 2.832 0 0 0-2.865-2.832 2.856 2.856 0 0 0-2.8 2.868v9.01a.335.335 0 0 1-.335.335h-4.378a.335.335 0 0 1-.335-.335V13.75a.335.335 0 0 1 .335-.335h4.286a.335.335 0 0 1 .335.335v1.8l.046.006A4.948 4.948 0 0 1 23.269 13h.881a5.562 5.562 0 0 1 5.562 5.562z"/></symbol><symbol id="services-for-retailers-icon" viewBox="0 0 47.761 64"><title>services-for-retailers-icon</title><path d="M8.343 21.815a3.41 3.41 0 0 1 3.405-3.4H16.6a3.41 3.41 0 0 1 3.405 3.4v3.141h2.3V7.13H6.045v17.825h2.3zm5.875-12.053a3.229 3.229 0 0 1 3.235 3.225 3.343 3.343 0 0 1-3.235 3.225 3.225 3.225 0 1 1 0-6.451zM24.093 14.94h17.623v1.273H24.093zM24.093 18.928h17.623v1.273H24.093zM24.093 22.833h17.623v1.273H24.093zM6.045 26.737h35.672v1.273H6.045zM6.045 30.642h35.672v1.273H6.045zM6.045 34.631h35.672v1.273H6.045z"/><path d="M42.057 0H5.7A5.7 5.7 0 0 0 0 5.687v46.769a5.7 5.7 0 0 0 5.7 5.687h21.118V64l4.6-2.886 4.512 2.833v-5.8h6.13a5.7 5.7 0 0 0 5.7-5.687V5.687A5.7 5.7 0 0 0 42.057 0zM34.82 61.708l-3.32-2.037-3.32 2.037v-7.343a7.986 7.986 0 0 0 6.641 0zm-3.32-7.893a6.706 6.706 0 1 1 0-13.411 6.785 6.785 0 0 1 6.726 6.706 6.676 6.676 0 0 1-6.726 6.705zm14.558-1.359a3.991 3.991 0 0 1-4 3.989h-6.13v-2.687a8.008 8.008 0 1 0-9.11-.184v2.871H5.7a3.991 3.991 0 0 1-4-3.989V5.687a3.991 3.991 0 0 1 4-3.987h36.357a3.991 3.991 0 0 1 4 3.989z"/><path d="M31.5 44.053a3.056 3.056 0 1 0 0 6.111 3.1 3.1 0 0 0 3.065-3.056 3.048 3.048 0 0 0-3.065-3.055zm0 4.923a1.783 1.783 0 1 1 1.788-1.783 1.743 1.743 0 0 1-1.788 1.783zM6.045 43.205h9.876v1.273H6.045z"/></symbol><symbol id="structuring-business-icon" viewBox="0 0 64 64"><title>structuring-business-icon</title><path d="M31.877 37.206l5.329-5.33a1.25 1.25 0 0 0 0-1.768l-1.739-1.74a17.148 17.148 0 0 0 1.291-3.117h2.46A1.25 1.25 0 0 0 40.468 24v-7.535a1.25 1.25 0 0 0-1.25-1.25h-2.46a17.134 17.134 0 0 0-1.291-3.115l1.74-1.74a1.25 1.25 0 0 0 0-1.768l-5.33-5.33a1.25 1.25 0 0 0-1.768 0L28.369 5a17.125 17.125 0 0 0-3.117-1.29V1.25A1.25 1.25 0 0 0 24 0h-7.535a1.25 1.25 0 0 0-1.25 1.25v2.46A17.139 17.139 0 0 0 12.1 5l-1.739-1.74a1.25 1.25 0 0 0-1.768 0l-5.33 5.33a1.25 1.25 0 0 0 0 1.768L5 12.1a17.14 17.14 0 0 0-1.29 3.115H1.25A1.25 1.25 0 0 0 0 16.465V24a1.25 1.25 0 0 0 1.25 1.25h2.46A17.133 17.133 0 0 0 5 28.369l-1.74 1.74a1.25 1.25 0 0 0 0 1.768l5.33 5.33a1.25 1.25 0 0 0 1.768 0l1.74-1.74a17.125 17.125 0 0 0 3.117 1.292v2.46a1.25 1.25 0 0 0 1.25 1.25H24a1.25 1.25 0 0 0 1.25-1.25v-2.46a17.13 17.13 0 0 0 3.117-1.292l1.74 1.74a1.249 1.249 0 0 0 1.768 0zm-2.415-4.182a1.25 1.25 0 0 0-1.536-.183 14.649 14.649 0 0 1-4.216 1.747 1.25 1.25 0 0 0-.957 1.215v2.165h-5.038V35.8a1.25 1.25 0 0 0-.957-1.215 14.648 14.648 0 0 1-4.216-1.747 1.25 1.25 0 0 0-1.536.183l-1.531 1.533-3.562-3.562 1.531-1.531a1.25 1.25 0 0 0 .183-1.536 14.672 14.672 0 0 1-1.747-4.216 1.25 1.25 0 0 0-1.215-.957H2.5v-5.037h2.164a1.25 1.25 0 0 0 1.215-.957 14.667 14.667 0 0 1 1.747-4.216 1.25 1.25 0 0 0-.182-1.536L5.913 9.475l3.562-3.562 1.531 1.531a1.25 1.25 0 0 0 1.536.182 14.673 14.673 0 0 1 4.216-1.746 1.25 1.25 0 0 0 .957-1.215V2.5h5.037v2.164a1.25 1.25 0 0 0 .957 1.215 14.664 14.664 0 0 1 4.216 1.747 1.25 1.25 0 0 0 1.536-.182l1.531-1.531 3.562 3.562-1.531 1.531a1.25 1.25 0 0 0-.182 1.536 14.661 14.661 0 0 1 1.747 4.216 1.25 1.25 0 0 0 1.215.957h2.165v5.037H35.8a1.25 1.25 0 0 0-1.215.957 14.664 14.664 0 0 1-1.747 4.216 1.25 1.25 0 0 0 .183 1.536l1.531 1.531-3.562 3.562z"/><path d="M20.839 11.869h.061a1.25 1.25 0 1 0 0-2.5h-.059a1.25 1.25 0 1 0 0 2.5zM12.228 20.539a8.631 8.631 0 0 1 4.8-7.759 1.25 1.25 0 1 0-1.118-2.236 11.172 11.172 0 0 0-2.21 18.537 1.25 1.25 0 0 0 1.612-1.911 8.659 8.659 0 0 1-3.084-6.631z"/><path d="M20.9 14.446a6.092 6.092 0 1 0 6.092 6.092 6.1 6.1 0 0 0-6.092-6.092zm0 9.685a3.592 3.592 0 1 1 3.592-3.592 3.6 3.6 0 0 1-3.592 3.592zM63.811 47.306a1.249 1.249 0 0 0-.779-.556l-1.7-.394a13.774 13.774 0 0 0-.382-2.292l1.482-.925a1.25 1.25 0 0 0 .4-1.722l-3.148-5.046a1.25 1.25 0 0 0-1.722-.4l-1.482.924a13.8 13.8 0 0 0-1.891-1.351l.394-1.7a1.25 1.25 0 0 0-.936-1.5L48.25 31a1.25 1.25 0 0 0-1.5.936l-.394 1.7a13.792 13.792 0 0 0-2.292.382l-.925-1.482a1.25 1.25 0 0 0-1.722-.4l-5.046 3.148a1.25 1.25 0 0 0-.4 1.723l.925 1.482a13.8 13.8 0 0 0-1.351 1.891l-1.7-.394a1.25 1.25 0 0 0-1.5.936L31 46.72a1.25 1.25 0 0 0 .936 1.5l1.7.394a13.771 13.771 0 0 0 .382 2.292l-1.482.925a1.25 1.25 0 0 0-.4 1.722l3.153 5.047a1.25 1.25 0 0 0 1.722.4l1.482-.925a13.787 13.787 0 0 0 1.891 1.351l-.394 1.7a1.25 1.25 0 0 0 .936 1.5l5.794 1.342a1.25 1.25 0 0 0 1.5-.936l.394-1.7a13.792 13.792 0 0 0 2.292-.382l.925 1.482a1.25 1.25 0 0 0 1.722.4L58.6 59.68a1.25 1.25 0 0 0 .4-1.722l-.925-1.482a13.784 13.784 0 0 0 1.351-1.89l1.7.394a1.25 1.25 0 0 0 1.5-.936l1.343-5.795a1.251 1.251 0 0 0-.158-.943zm-3.338 4.956l-1.407-.326a1.249 1.249 0 0 0-1.4.658 11.313 11.313 0 0 1-2.046 2.863A1.25 1.25 0 0 0 55.451 57l.765 1.226-2.925 1.825-.765-1.226a1.25 1.25 0 0 0-1.456-.525 11.3 11.3 0 0 1-3.471.579 1.25 1.25 0 0 0-1.206.968l-.326 1.407-3.359-.778.326-1.407a1.25 1.25 0 0 0-.658-1.4 11.3 11.3 0 0 1-2.863-2.046 1.25 1.25 0 0 0-1.538-.169l-1.226.765-1.825-2.929 1.226-.765a1.25 1.25 0 0 0 .524-1.456A11.306 11.306 0 0 1 36.1 47.6a1.25 1.25 0 0 0-.968-1.206l-1.407-.326.778-3.359 1.407.326a1.251 1.251 0 0 0 1.4-.658 11.3 11.3 0 0 1 2.046-2.864 1.25 1.25 0 0 0 .169-1.538l-.765-1.226 2.925-1.825.765 1.226a1.25 1.25 0 0 0 1.455.525 11.313 11.313 0 0 1 3.472-.579 1.25 1.25 0 0 0 1.206-.968l.317-1.408 3.359.778-.326 1.407a1.25 1.25 0 0 0 .658 1.4 11.31 11.31 0 0 1 2.864 2.046A1.25 1.25 0 0 0 57 39.52l1.226-.765 1.825 2.925-1.226.765A1.25 1.25 0 0 0 58.3 43.9a11.292 11.292 0 0 1 .579 3.471 1.25 1.25 0 0 0 .968 1.206l1.407.326z"/><path d="M49.411 41.426A1.25 1.25 0 1 0 50 39l-.083-.019a1.25 1.25 0 0 0-.51 2.447zM41.533 46.353a6.549 6.549 0 0 1 4.874-4.914 1.25 1.25 0 0 0-.585-2.431 9.08 9.08 0 0 0-5.146 14.273 1.25 1.25 0 0 0 2-1.5 6.568 6.568 0 0 1-1.143-5.428z"/><path d="M49.085 42.9a5.1 5.1 0 0 0-1.147-.132 5.075 5.075 0 1 0 1.147.132zm1.361 5.521a2.558 2.558 0 0 1-2.5 1.992 2.584 2.584 0 0 1-.583-.067 2.572 2.572 0 0 1 .577-5.077 2.575 2.575 0 0 1 2.508 3.152zM22.855 43.09c-4.25.772-10.058.083-12.431-1.474a1.25 1.25 0 0 0-1.372 2.09c2.117 1.389 6.066 2.206 9.961 2.206a24.276 24.276 0 0 0 4.287-.362 1.25 1.25 0 1 0-.447-2.46zM26.224 41.969a6.454 6.454 0 0 1-.234.128 1.25 1.25 0 1 0 1.165 2.212c.108-.057.214-.115.318-.175a1.25 1.25 0 0 0-1.25-2.165zM45.351 28.911c1.808-.79 5.909-.751 9.132.566a1.25 1.25 0 0 0 .945-2.315c-3.57-1.458-8.437-1.7-11.079-.543a1.25 1.25 0 0 0 1 2.291zM57.276 30.986a1.25 1.25 0 1 0 1.6-1.925c-.075-.062-.106-.088-.185-.148a1.25 1.25 0 0 0-1.523 1.987c.046.034.064.049.108.086z"/></symbol><symbol id="tax-accounting-icon" viewBox="0 0 57.314 64"><title>tax-accounting-icon</title><path d="M6.814 14.286a2.362 2.362 0 0 0 2.3 2.56 2.362 2.362 0 0 0 2.3-2.56 2.362 2.362 0 0 0-2.3-2.56 2.362 2.362 0 0 0-2.3 2.56zm2.3-1.734c.985 0 1.313.908 1.313 1.734s-.328 1.734-1.313 1.734S7.8 15.112 7.8 14.286s.327-1.734 1.312-1.734zM3.776 10.983a2.362 2.362 0 0 0 2.3-2.56 2.362 2.362 0 0 0-2.3-2.56 2.362 2.362 0 0 0-2.3 2.56 2.362 2.362 0 0 0 2.3 2.56zm0-4.294c.985 0 1.313.908 1.313 1.734 0 .743-.328 1.734-1.313 1.734s-1.313-.908-1.313-1.734.328-1.734 1.313-1.734zM3.694 16.6a.463.463 0 0 0 .493.413c.246 0 .41-.165.575-.5l4.022-9.741a3.662 3.662 0 0 0 .246-.661.463.463 0 0 0-.492-.411q-.246 0-.493.5l-4.1 9.745a3.662 3.662 0 0 0-.251.655zM23.561 10.9a.463.463 0 0 0 .493.413c.246 0 .41-.165.575-.5l4.021-9.739a3.662 3.662 0 0 0 .25-.661.463.463 0 0 0-.5-.413c-.246 0-.328.165-.493.5l-4.1 9.745a3.665 3.665 0 0 0-.246.655zM23.643 5.285a2.362 2.362 0 0 0 2.3-2.56 2.312 2.312 0 1 0-4.6 0c.001 1.404.822 2.643 2.3 2.56zm0-4.294c.985 0 1.313.908 1.313 1.734s-.328 1.817-1.313 1.734c-.985 0-1.313-.908-1.313-1.734S22.658.991 23.643.991zM26.762 8.671a2.314 2.314 0 0 0 2.3 2.56 2.362 2.362 0 0 0 2.3-2.56 2.312 2.312 0 1 0-4.6 0zm2.3-1.734c.985 0 1.313.908 1.313 1.734 0 .743-.328 1.734-1.313 1.734s-1.315-.905-1.315-1.734.329-1.734 1.314-1.734zM46.465 42.281l-18.307-.248 12.56-13.378a.8.8 0 0 0 0-1.156 20.729 20.729 0 0 0-24.766-2.98l-5.034-5.195a.625.625 0 0 0-.411-.165H.657a.661.661 0 0 0 0 1.321h9.523l4.605 4.754A21.149 21.149 0 0 0 26.352 64a21.049 21.049 0 0 0 20.934-20.893.825.825 0 0 0-.821-.826zm-20.113 20.15A19.489 19.489 0 0 1 16.008 26.5l6.732 6.948a.625.625 0 0 0 .411.165.708.708 0 0 0 .492-.248.651.651 0 0 0 0-.908l-6.463-6.671a19.142 19.142 0 0 1 9.172-2.333 18.54 18.54 0 0 1 12.642 4.872L25.777 42.446a.757.757 0 0 0-.164.908.718.718 0 0 0 .739.5l19.292.248a19.452 19.452 0 0 1-19.292 18.329z"/><path d="M50.734 23.453a.79.79 0 0 0-1.149 0l-4.544 4.87-14.092-14.367a.625.625 0 0 0-.41-.165h-9.851a.661.661 0 0 0 0 1.321h9.522L44.1 29.336l-8.3 8.9a.757.757 0 0 0-.164.908.718.718 0 0 0 .739.5l20.195.33a.713.713 0 0 0 .739-.826v-.33a20.92 20.92 0 0 0-6.575-15.365zM38.338 38.07l6.993-7.47 2.776 2.844a.625.625 0 0 0 .41.165 1.088 1.088 0 0 0 .575-.248.651.651 0 0 0 0-.908l-2.812-2.865 4.043-4.318a19.384 19.384 0 0 1 5.5 13.048z"/></symbol><symbol id="trainings-icon" viewBox="0 0 55.403 64"><title>trainings-icon</title><path d="M39.518 31.845a18.113 18.113 0 1 0-23.634 0 3.171 3.171 0 0 0-.137 4.421 3.154 3.154 0 0 0 0 4.267 3.172 3.172 0 0 0 1.3 5.137v7.663a1.064 1.064 0 0 0 .314.752l9.589 9.6a1.064 1.064 0 0 0 1.507 0l9.589-9.6a1.064 1.064 0 0 0 .314-.752V45.67a3.172 3.172 0 0 0 1.3-5.137 3.154 3.154 0 0 0 0-4.267 3.171 3.171 0 0 0-.138-4.421zM27.7 61.425l-1.69-1.692h3.38zm3.822-3.825h-7.641l-4.1-4.1 1.524-1.017 2.6 1.739a1.064 1.064 0 0 0 1.182 0l2.613-1.74 2.605 1.739a1.064 1.064 0 0 0 1.182 0l2.606-1.739 1.524 1.018zm4.7-6.26l-1.54-1.027a1.064 1.064 0 0 0-1.182 0l-2.6 1.738-2.6-1.739a1.064 1.064 0 0 0-1.182 0L24.5 52.051l-2.6-1.739a1.064 1.064 0 0 0-1.182 0l-1.54 1.028v-5.473h17.047zm1.065-7.606H18.112a1.067 1.067 0 0 1 0-2.133H37.29a1.067 1.067 0 0 1 0 2.133zm0-4.267H18.112a1.067 1.067 0 0 1 0-2.133H37.29a1.067 1.067 0 0 1 0 2.133zm0-4.267H18.112a1.067 1.067 0 0 1 0-2.133h19.187a1.066 1.066 0 0 1-.009 2.133zM24.369 19.069a1.064 1.064 0 0 0 1.338 0 5.3 5.3 0 0 0 1.993-4.136 5.366 5.366 0 0 0-.056-.731 4.921 4.921 0 0 0-.035-.206 4.981 4.981 0 0 0-.129-.543c-.017-.06-.032-.12-.051-.178a5.263 5.263 0 0 0-.27-.663c-.019-.038-.043-.075-.063-.114a5.215 5.215 0 0 0-.31-.517c-.019-.029-.033-.061-.053-.09a3.1 3.1 0 0 1 1.937 0c-.02.029-.034.061-.053.09a5.535 5.535 0 0 0-.31.517c-.02.038-.044.075-.063.114a5.186 5.186 0 0 0-.27.663c-.019.059-.034.118-.051.178A5.515 5.515 0 0 0 27.8 14c-.013.068-.026.136-.035.206a5.063 5.063 0 0 0-.059.731 5.3 5.3 0 0 0 1.994 4.132 1.064 1.064 0 0 0 1.338 0 5.3 5.3 0 0 0 1.995-4.135 5.375 5.375 0 0 0-.056-.731 4.921 4.921 0 0 0-.035-.206 4.953 4.953 0 0 0-.129-.543c-.017-.06-.032-.12-.052-.178a5.273 5.273 0 0 0-.27-.663c-.019-.041-.044-.078-.065-.117a5.382 5.382 0 0 0-.3-.511c-.02-.031-.035-.064-.057-.094a3.067 3.067 0 0 1 .969-.157 3.407 3.407 0 0 1 3.2 3.433 5.257 5.257 0 0 1-1.894 4.048l-4.115 3.434a1.066 1.066 0 0 0-.384.819v7.467H25.57v-7.468a1.066 1.066 0 0 0-.384-.819l-4.115-3.434a5.259 5.259 0 0 1-1.894-4.048 3.407 3.407 0 0 1 3.2-3.433 3.06 3.06 0 0 1 .967.157c-.021.03-.036.064-.056.094a5.185 5.185 0 0 0-.3.511c-.02.04-.045.077-.065.117a5.291 5.291 0 0 0-.269.663c-.019.059-.034.12-.052.178a5.5 5.5 0 0 0-.129.543c-.013.068-.026.136-.035.206a5.547 5.547 0 0 0-.055.731 5.3 5.3 0 0 0 1.986 4.136zm.136-4.135a3.134 3.134 0 0 1 .071-.625c.011-.049.021-.1.034-.147a3.15 3.15 0 0 1 .206-.582l.023-.042a3.194 3.194 0 0 1 .2-.314 3.217 3.217 0 0 1 .2.314c.006.014.016.027.023.04a3.106 3.106 0 0 1 .206.582c.013.049.023.1.034.147a2.776 2.776 0 0 1 0 1.251c-.011.049-.021.1-.034.147a3.16 3.16 0 0 1-.206.582c-.006.014-.016.028-.023.042a3.232 3.232 0 0 1-.2.314 3.208 3.208 0 0 1-.2-.314c-.007-.014-.017-.028-.023-.042a3.151 3.151 0 0 1-.206-.582c-.013-.049-.023-.1-.034-.147a3.134 3.134 0 0 1-.076-.625zm5.327 0a3.134 3.134 0 0 1 .071-.625c.011-.049.021-.1.034-.147a3.154 3.154 0 0 1 .206-.582l.023-.042a3.229 3.229 0 0 1 .2-.314 3.217 3.217 0 0 1 .2.314c.006.014.016.027.023.04a3.1 3.1 0 0 1 .206.582c.013.049.023.1.034.147a2.781 2.781 0 0 1 0 1.251c-.011.049-.021.1-.034.147a3.156 3.156 0 0 1-.206.582c-.006.014-.016.028-.023.042a3.232 3.232 0 0 1-.2.314 3.244 3.244 0 0 1-.2-.314c-.007-.014-.017-.028-.023-.042a3.156 3.156 0 0 1-.206-.582c-.013-.049-.023-.1-.034-.147a3.134 3.134 0 0 1-.071-.625zm7.435 16h-5.3v-6.968l3.731-3.114a7.383 7.383 0 0 0 2.661-5.686A5.524 5.524 0 0 0 33.028 9.6a5.194 5.194 0 0 0-2.667.744 5.314 5.314 0 0 0-5.32 0 5.2 5.2 0 0 0-2.667-.744 5.524 5.524 0 0 0-5.327 5.566 7.387 7.387 0 0 0 2.662 5.687l3.731 3.113v6.967h-5.3a15.982 15.982 0 1 1 19.131 0zM49.763 1.823L48.256.315l-4.262 4.266 1.507 1.509 4.262-4.267zM45.5 30.177l-1.507 1.509 4.262 4.267 1.506-1.509-4.261-4.267zM49.01 17.067h6.393V19.2H49.01zM11.408 4.58L7.146.313 5.639 1.821l4.262 4.267 1.507-1.508zM5.639 34.445l1.507 1.509 4.262-4.267-1.507-1.508-4.262 4.266zM0 17.067h6.393V19.2H0zM40.487 51.2h2.131v2.133h-2.131zM44.748 51.2h2.131v2.133h-2.131zM49.01 51.2h2.131v2.133H49.01zM4.262 51.2h2.131v2.133H4.262zM8.523 51.2h2.131v2.133H8.523zM12.786 51.2h2.131v2.133h-2.131z"/></symbol><symbol id="transfer-pricing-icon" viewBox="0 0 64 64"><title>transfer-pricing-icon</title><path d="M54.627 9.373A32 32 0 1 0 9.373 54.627 32 32 0 1 0 54.627 9.373zM24.7 3.468a22.67 22.67 0 0 0-4.57 6.457q-.375.756-.721 1.555a29.548 29.548 0 0 1-5.038-3.057A29.357 29.357 0 0 1 24.7 3.468zm6.024 27.258H18.12a51.8 51.8 0 0 1 2.7-15.876 31.359 31.359 0 0 0 9.9 1.958zM12.349 10.085a32.18 32.18 0 0 0 6.122 3.774 54.327 54.327 0 0 0-2.9 16.866H2.579a29.388 29.388 0 0 1 9.77-20.64zm-9.77 23.19h12.986a54.586 54.586 0 0 0 2.867 17.012 32.166 32.166 0 0 0-6.006 3.7 29.389 29.389 0 0 1-9.847-20.712zm11.879 22.366a29.543 29.543 0 0 1 4.905-2.971q.367.853.767 1.66a23.265 23.265 0 0 0 4.215 6.112 29.362 29.362 0 0 1-9.887-4.801zm16.267 5.682c-3.078-.615-5.99-3.445-8.311-8.125q-.367-.741-.705-1.526a28.822 28.822 0 0 1 9.016-1.8zm0-14a31.354 31.354 0 0 0-9.942 1.973 52.072 52.072 0 0 1-2.668-16.019h12.61zm0-33.065a28.826 28.826 0 0 1-8.968-1.782q.316-.725.657-1.416c2.321-4.68 5.233-7.51 8.311-8.125zm2.55 47.167V2.577a29.451 29.451 0 0 1 0 58.846z"/><path d="M42.853 53.572a1.275 1.275 0 0 0-1.728.514q-.133.247-.27.486a1.275 1.275 0 1 0 2.216 1.261q.15-.263.3-.534a1.275 1.275 0 0 0-.518-1.727zM52.795 23.7l-5.809-4.977a1.275 1.275 0 0 0-1.8.139l-4.977 5.809a1.275 1.275 0 0 0 1.936 1.659l3.015-3.519a58.347 58.347 0 0 1 .734 9.319 52.157 52.157 0 0 1-2.907 17.79 1.275 1.275 0 1 0 2.393.882 54.723 54.723 0 0 0 3.065-18.672 61.069 61.069 0 0 0-.719-9.413l3.408 2.92a1.275 1.275 0 1 0 1.661-1.937z"/></symbol><symbol id="translation-services-icon" viewBox="0 0 59.224 64"><title>translation-services-icon</title><path d="M39.563 9.664h2.445v5.7a.965.965 0 0 0 1.93 0V8.7a.987.987 0 0 0-.965-.96h-3.41a.987.987 0 0 0-.965.96.945.945 0 0 0 .965.964zM48.569 40.576H24.638a.96.96 0 1 0 0 1.92H48.5a.987.987 0 0 0 .965-.96.932.932 0 0 0-.896-.96zM48.569 44.224H24.638a.96.96 0 1 0 0 1.92H48.5a.987.987 0 0 0 .965-.96.932.932 0 0 0-.896-.96zM48.569 47.808H24.638a.96.96 0 1 0 0 1.92H48.5a.987.987 0 0 0 .965-.96.932.932 0 0 0-.896-.96zM40.463 51.456H24.638a.96.96 0 1 0 0 1.92H40.4a.987.987 0 0 0 .965-.96.932.932 0 0 0-.902-.96z"/><path d="M58.926 16.448a.936.936 0 0 0-1.351 0l-1.544 1.536a6.237 6.237 0 0 0-10.486 1.28H35.9V2.56A2.574 2.574 0 0 0 33.323 0H2.573A2.574 2.574 0 0 0 0 2.56v40.448a2.574 2.574 0 0 0 2.573 2.56h16.018V55.3a1.338 1.338 0 0 0 .257.7l7.784 7.744c.064.064.193.128.257.192h.064c.064 0 .193.064.257.064h24.7a2.739 2.739 0 0 0 2.766-2.752V27.136a6.217 6.217 0 0 0 2.831-5.184 5.367 5.367 0 0 0-.45-2.24l1.93-1.92a.987.987 0 0 0-.061-1.344zm-40.335 5.376H5.983a.96.96 0 1 0 0 1.92h12.608v1.728H5.983a.96.96 0 1 0 0 1.92h12.608v1.728H5.983a.96.96 0 1 0 0 1.92h12.608v1.728H5.983a.96.96 0 1 0 0 1.92h12.608v9.024H2.573v-.064a.643.643 0 0 1-.643-.64V2.56a.643.643 0 0 1 .643-.64h30.814a.643.643 0 0 1 .643.64v16.7H21.357a2.793 2.793 0 0 0-2.766 2.564zm7.784 38.912l-4.439-4.48h3.6a.849.849 0 0 1 .836.832zm26.311.512a.849.849 0 0 1-.836.832H28.241v-4.992a2.739 2.739 0 0 0-2.766-2.752h-5.018v-32.32a.849.849 0 0 1 .836-.832h23.673c0 .256-.064.512-.064.768a6.23 6.23 0 0 0 6.24 6.208 6.375 6.375 0 0 0 1.544-.192zm2.831-39.3a4.31 4.31 0 1 1-4.31-4.288 4.394 4.394 0 0 1 3.474 1.728l-3.088 3.072-1.673-1.66a.936.936 0 0 0-1.351 0 .925.925 0 0 0 0 1.344l2.38 2.368a.971.971 0 0 0 .708.256 1.353 1.353 0 0 0 .708-.256l3.216-3.2a1.962 1.962 0 0 0-.065.64z"/><path d="M34.288 34.688h4.567l.9 2.688h2.766l-4.567-12.16h-2.766l-4.632 12.16h2.7zm2.312-6.464l1.544 4.48H35zM23.481 13.632a3.265 3.265 0 0 0-2.445-3.2.906.906 0 0 1 .129-.384l-1.865-.32c0 .192-.064.192-.064.384a5.832 5.832 0 0 0-1.673.128v-1.6a49.006 49.006 0 0 0 4.5-.384L21.872 6.4a25.561 25.561 0 0 1-4.246.512 13.579 13.579 0 0 0 .065-1.412L15.7 5.376c0 .512-.064 1.088-.064 1.6h-2.448l.064 1.792h.193c.515 0 1.351 0 2.123-.064v2.048c-1.8.768-3.088 2.176-3.088 3.9a1.853 1.853 0 0 0 1.994 1.984 6.047 6.047 0 0 0 3.474-1.408 15.114 15.114 0 0 0 2.38-3.072 1.693 1.693 0 0 1 1.094 1.544c0 1.344-1.351 2.176-3.409 2.368l1.029 1.408c3.281-.452 4.439-1.796 4.439-3.844zm-8.556 1.152c-.643 0-.643-.384-.643-.576a2.388 2.388 0 0 1 1.351-1.664 16.6 16.6 0 0 0 .257 1.984 1.822 1.822 0 0 1-.965.256zm2.573-1.6c-.064-.448-.064-.832-.129-1.28.193 0 .772-.128 1.094-.128a5.475 5.475 0 0 1-.963 1.408z"/></symbol></svg>