<svg xmlns="http://www.w3.org/2000/svg" xmlns:xlink="http://www.w3.org/1999/xlink" width="302" height="249" viewBox="0 0 302 249"><defs><linearGradient id="a" x1="101.326" y1="172.217" x2="102.326" y2="172.217" gradientTransform="matrix(-38.766, 38.433, 38.766, 38.433, -2641.696, -10458.542)" gradientUnits="userSpaceOnUse"><stop offset="0" stop-color="#f5ba88"/><stop offset="1" stop-color="#b07f5c"/></linearGradient><linearGradient id="b" x1="101.25" y1="172.762" x2="102.25" y2="172.762" gradientTransform="matrix(-50.768, 50.332, 50.768, 50.332, -3566.848, -13662.764)" xlink:href="#a"/></defs><title>nt-audit-logo</title><path d="M14.089,6.681,10.414,4.859H0V0H51.456l102.3,127.537V167.62H142.73L17.765,10.324l-.613-.607L15.314,7.288C14.7,7.288,14.7,7.288,14.089,6.681Z" transform="translate(0 0)" style="fill:url(#a)"/><path d="M36.754,106.281h4.9s1.225,13.361,1.225,13.968c.613,6.073.613,12.754,3.063,18.827a36.187,36.187,0,0,0,5.513,9.11c3.063,3.644,6.126,7.288,9.8,9.717a21.858,21.858,0,0,0,5.513,2.429,5.563,5.563,0,0,0,3.063.607,21.911,21.911,0,0,1,4.288.607v6.073H1.225v-5.466c3.675-.607,9.8-2.429,11.026-2.429,4.288-1.215,8.576-4.251,11.639-7.288a37.075,37.075,0,0,0,7.351-9.717,40.051,40.051,0,0,0,3.676-12.146C36.142,122.679,36.142,114.783,36.754,106.281Z" transform="translate(0 0)" style="fill:url(#b)"/><path d="M136.605,10.324c1.838,1.822,3.063,3.644,5.513,7.288,1.225,1.822,1.838,4.251,3.676,7.288,0,.607,1.838,6.681,1.838,7.288.613,4.858,1.225,7.9,1.838,12.146l1.225,15.79h4.288l2.45-18.827c.613-2.429,1.225-6.073,1.838-9.717,1.225-3.644,2.45-7.288,4.9-10.325l.613-1.215c1.838-1.822,3.063-3.644,4.288-4.251,2.45-1.822,7.963-6.68,14.089-8.5a25.588,25.588,0,0,1,9.8-1.822c3.063,0,6.738-.607,7.963-.607h7.964l-.613,140.29a10.252,10.252,0,0,1-.613,4.251l-1.225,3.644a11.17,11.17,0,0,1-9.189,7.9h-.613l-6.126.607v6.681h69.221v-6.073l-8.576-1.822a15.5,15.5,0,0,1-8.576-7.895,45.876,45.876,0,0,1-1.838-12.754l.613-134.217h11.638a46.123,46.123,0,0,1,12.252,1.822,51.39,51.39,0,0,1,9.189,2.429,25.028,25.028,0,0,1,6.738,3.644c1.225.607,2.45,2.429,3.675,3.037a37.256,37.256,0,0,1,11.639,20.042c0,1.215.613,1.822.613,3.037l1.225,6.073H302V1.822H117V7.287h9.189a14.716,14.716,0,0,1,8.576,3.037C135.38,9.109,135.993,9.717,136.605,10.324Z" transform="translate(0 0)" style="fill:#f0f1f3"/><path d="M60.032,248.393h-2.45l-.613-.607-3.675-10.324H36.141l-4.288,10.324a.6.6,0,0,1-.613.607H28.79l14.7-35.224h2.45ZM52.681,235.64,45.33,218.028c0-.607-.613-1.215-.613-1.822,0,.607,0,.607-.613,1.215,0,.607,0,.607-.613,1.215l-7.351,17.612h16.54Z" transform="translate(0 0)" style="fill:#f0f1f3"/><path d="M103.525,246.57a9.154,9.154,0,0,0,4.288-.607,12.826,12.826,0,0,0,3.675-2.429,5.233,5.233,0,0,0,1.838-3.644c.613-1.215.613-3.037.613-4.859V213.168h2.45v21.863a8.962,8.962,0,0,1-1.225,5.466,9.768,9.768,0,0,1-2.45,4.251,10.985,10.985,0,0,1-4.288,3.037A18.018,18.018,0,0,1,102.912,249a18.018,18.018,0,0,1-5.513-1.215,10.985,10.985,0,0,1-4.288-3.037,9.769,9.769,0,0,1-2.45-4.251,16.677,16.677,0,0,1-.613-5.466V213.168H92.5v21.863a13.265,13.265,0,0,0,.613,4.859l1.838,3.644c.613,1.215,1.838,1.822,3.675,2.429C99.849,246.57,101.687,246.57,103.525,246.57Z" transform="translate(0 0)" style="fill:#f0f1f3"/><path d="M181.322,230.78a30.248,30.248,0,0,1-1.225,7.288,8.842,8.842,0,0,1-3.676,5.466c-1.225,1.822-3.063,2.429-5.513,3.644a22.193,22.193,0,0,1-6.738,1.215H151.306V213.168H164.17a22.192,22.192,0,0,1,6.738,1.215,14.476,14.476,0,0,1,5.513,3.644l3.676,5.466C181.322,225.314,181.322,228.351,181.322,230.78Zm-3.063,0a21.665,21.665,0,0,0-1.225-6.681,9.769,9.769,0,0,0-2.45-4.251,10.986,10.986,0,0,0-4.288-3.037,18.018,18.018,0,0,0-5.513-1.215H154.369V246.57h10.414a14.736,14.736,0,0,0,5.513-1.215,10.985,10.985,0,0,0,4.288-3.037,13.208,13.208,0,0,0,3.063-4.858A22.583,22.583,0,0,0,178.259,230.78Z" transform="translate(0 0)" style="fill:#f0f1f3"/><path d="M216.851,248.392H214.4V213.168h2.45Z" transform="translate(0 0)" style="fill:#f0f1f3"/><path d="M275.045,215.6H262.794v32.8h-2.45V215.6H248.092v-2.429h27.566V215.6Z" transform="translate(0 0)" style="fill:#f0f1f3"/></svg>