<svg xmlns="http://www.w3.org/2000/svg" width="1052" height="453" viewBox="0 0 1052 453"><title>404</title><path d="M216.47,281.06v-145a412.2,412.2,0,0,1,2.77-45.36L81.18,281.06Zm122.07,0v43.83a15.84,15.84,0,0,1-4,10.73q-4,4.29-11.38,4.29H282.58V448.1H216.47V339.9H28.9A20.94,20.94,0,0,1,8,323.35L0,285,210.63,4.6h72V281.06Zm357-54.56q0,57.93-12.61,100.84-12.3,42.6-34.44,70.49-21.83,27.89-52,41.68Q566.74,453,532,453t-64.57-13.49q-29.52-13.79-51.35-41.68t-34.13-70.49q-12.3-42.91-12.3-100.84,0-58.23,12.3-100.84t34.13-70.49q21.83-27.89,51.35-41.38Q497.25,0,532,0t64.57,13.79q30.13,13.49,52,41.38Q670.67,83.06,683,125.66,695.58,168.27,695.58,226.5Zm-78.41,0q0-48.12-7.07-79.69T591,96.55Q579.35,77.85,564,70.49a69.92,69.92,0,0,0-63.65,0q-15.07,7.36-26.75,26.05t-18.76,50.27q-6.76,31.57-6.76,79.69t6.76,79.69q7.07,31.57,18.76,50.27t26.75,26.36a72.53,72.53,0,0,0,63.65,0q15.38-7.66,27.06-26.36,12-18.7,19.06-50.27T617.17,226.5Zm312.76,54.56v-145a412.21,412.21,0,0,1,2.77-45.36L794.64,281.06Zm122.07,0v43.83a15.82,15.82,0,0,1-4,10.73q-4,4.29-11.37,4.29H996V448.1H929.93V339.9H742.36a20.94,20.94,0,0,1-20.91-16.55l-8-38.31L924.09,4.6h72V281.06Z"/></svg>