<svg xmlns="http://www.w3.org/2000/svg" width="56.89" height="64" viewBox="0 0 56.89 64"><title>accounting-icon</title><path d="M48.333,37.489a.848.848,0,0,0-1.146.325.722.722,0,0,0,.353,1.057c4.939,2.358,7.585,5.286,7.585,8.457,0,5.936-9.614,11.141-22.491,12.036a.975.975,0,0,0-.794.894.847.847,0,0,0,.882.732c14.024-.976,24.255-6.75,24.167-13.581C56.888,43.588,53.8,40.091,48.333,37.489Z"/><path d="M31.919,40.733A12.474,12.474,0,0,1,29.9,40.9c-2.91,0-4.982-.874-5.556-1.832v-1.8a10.75,10.75,0,0,0,5.468,1.279,10.42,10.42,0,0,0,2.107-.154V37.158a12.443,12.443,0,0,1-2.02.168c-2.91,0-4.982-.874-5.556-1.832V33.771a10.75,10.75,0,0,0,5.468,1.279,10.417,10.417,0,0,0,2.108-.155V33.674a12.443,12.443,0,0,1-2.02.168c-2.91,0-4.982-.874-5.556-1.832v-.771a.6.6,0,0,0-.177-.422v-.652a10.434,10.434,0,0,0,5.645,1.387v.014a10.417,10.417,0,0,0,2.108-.155V30.177a12.45,12.45,0,0,1-2.02.168c-3.439,0-5.732-1.219-5.733-2.358v-1.25a10.433,10.433,0,0,0,5.645,1.4v.014a10.4,10.4,0,0,0,2.108-.142V26.757a12.443,12.443,0,0,1-2.02.168c-3.439,0-5.732-1.219-5.733-2.358V23.241a10.435,10.435,0,0,0,5.645,1.4v.01a10.4,10.4,0,0,0,2.108-.142v-1.25a12.443,12.443,0,0,1-2.02.168c-3.439,0-5.732-1.219-5.733-2.358V19.744a10.435,10.435,0,0,0,5.645,1.4v.007a10.4,10.4,0,0,0,2.108-.142v-1.25a12.443,12.443,0,0,1-2.02.168c-3.439,0-5.732-1.22-5.733-2.358v-1.32a10.433,10.433,0,0,0,5.645,1.4v0a10.4,10.4,0,0,0,2.108-.142V17a1.621,1.621,0,0,1,.206-.766,12.419,12.419,0,0,1-2.226.2c-3.439,0-5.732-1.22-5.733-2.358V12.75a10.433,10.433,0,0,0,5.645,1.4h0a10.4,10.4,0,0,0,5.821-1.527v1.446a.925.925,0,0,1-.049.194,11.961,11.961,0,0,1,1.46-.221V3.575a.607.607,0,0,0-.245-.492C36.343,1.3,33.452,0,29.812,0c-3.961,0-7.042,1.539-7.055,3.566V29.059a10.433,10.433,0,0,0-5.645-1.4c-3.968,0-7.054,1.544-7.056,3.576V48.711c0,2.034,3.086,3.58,7.055,3.58s7.056-1.626,7.232-3.578V40.845a10.749,10.749,0,0,0,5.468,1.279,14.19,14.19,0,0,0,2.108-.154Zm-9.147-2.018c-.566.97-2.708,1.862-5.573,1.862-3.44,0-5.733-1.22-5.733-2.358V36.9a10.434,10.434,0,0,0,5.645,1.4,10.718,10.718,0,0,0,5.645-1.375v1.617C22.756,38.6,22.767,38.657,22.772,38.715ZM11.466,34.738V33.407a10.434,10.434,0,0,0,5.645,1.4,10.434,10.434,0,0,0,5.645-1.4v1.849c-.586.961-2.714,1.84-5.556,1.84C13.759,37.1,11.466,35.876,11.466,34.738Zm5.645-5.868c3.012,0,5.224.985,5.645,2.011v.69c-.421,1.026-2.633,2.011-5.645,2.011-3.079,0-5.226-.978-5.645-2v-.36a.6.6,0,0,0-.041-.185C11.665,29.961,13.941,28.87,17.111,28.87Zm5.821,19.848c0,1.139-2.381,2.358-5.733,2.358-3.44,0-5.733-1.22-5.733-2.358V47.394a10.434,10.434,0,0,0,5.645,1.4V48.8a10.4,10.4,0,0,0,5.821-1.527Zm0-3.5c0,1.138-2.381,2.358-5.733,2.358-3.44,0-5.733-1.22-5.733-2.358V43.9a10.434,10.434,0,0,0,5.645,1.4,10.4,10.4,0,0,0,5.821-1.527Zm0-3.5c0,1.138-2.381,2.358-5.733,2.358-3.44,0-5.733-1.22-5.733-2.358V40.4a10.434,10.434,0,0,0,5.645,1.4,10.4,10.4,0,0,0,5.821-1.527Zm12.7-31.148c0,1.139-2.381,2.358-5.733,2.358-3.439,0-5.732-1.219-5.733-2.358V9.254a10.433,10.433,0,0,0,5.645,1.4,10.405,10.405,0,0,0,5.821-1.527Zm0-3.494c0,1.138-2.382,2.357-5.733,2.357-3.44,0-5.733-1.22-5.733-2.358V5.757a10.432,10.432,0,0,0,5.646,1.4A10.11,10.11,0,0,0,35.632,5.6Zm-5.82-5.939c3.352,0,5.733,1.3,5.733,2.358,0,1.138-2.381,2.358-5.733,2.358-3.083,0-5.231-.98-5.646-2V3.577a.609.609,0,0,0-.05-.226C24.308,2.257,26.6,1.138,29.812,1.138Z"/><path d="M27.165,56.925a.9.9,0,0,0-1.235,0,.745.745,0,0,0,0,1.138L27.6,59.6C13.278,59.383,1.764,54.024,1.764,47.492c0-2.846,2.2-5.611,6.262-7.807a.791.791,0,0,0,.353-1.138.933.933,0,0,0-1.235-.325C2.558,40.742,0,43.995,0,47.41c0,7.57,12.027,13.5,27.531,13.732l-1.6,1.475a.745.745,0,0,0,0,1.139.834.834,0,0,0,.617.244,1,1,0,0,0,.617-.244l3.087-2.846a.745.745,0,0,0,0-1.138Z"/><path d="M45.255,16.5c-.455-1.784-3.346-3.085-6.986-3.085-3.966,0-7.052,1.543-7.056,3.574v7h0v3.5h0v3.5h0v3.5h0v3.5h0v3.5h0v3.5h0c0,2.033,3.087,3.578,7.056,3.578,3.225,0,5.867-1.02,6.84-2.493a2.326,2.326,0,0,0,.391-1.1V17A.607.607,0,0,0,45.255,16.5ZM32.624,19.175a10.433,10.433,0,0,0,5.645,1.4,10.153,10.153,0,0,0,5.821-1.519v1.438c0,1.138-2.381,2.358-5.733,2.358-3.44,0-5.733-1.22-5.733-2.358Zm11.466,8.31h0c0,1.138-2.381,2.358-5.733,2.358-3.44,0-5.732-1.22-5.733-2.358V26.167a10.434,10.434,0,0,0,5.645,1.4,10.456,10.456,0,0,0,5.821-1.492Zm-5.821,3.579a10.456,10.456,0,0,0,5.821-1.492v1.409h0c0,1.139-2.381,2.358-5.733,2.358-3.44,0-5.732-1.22-5.733-2.358V29.665A10.434,10.434,0,0,0,38.269,31.064Zm0,3.5a10.456,10.456,0,0,0,5.821-1.492v1.41h0c0,1.139-2.381,2.358-5.733,2.358-3.44,0-5.732-1.22-5.733-2.358v-1.32a10.434,10.434,0,0,0,5.645,1.4Zm0,3.5a10.456,10.456,0,0,0,5.821-1.492v1.41h0c0,1.139-2.381,2.358-5.733,2.358-3.44,0-5.732-1.22-5.733-2.358V36.659a10.434,10.434,0,0,0,5.645,1.4Zm0,3.5a10.456,10.456,0,0,0,5.821-1.492v1.41h0c0,1.138-2.381,2.358-5.733,2.358-3.44,0-5.732-1.22-5.733-2.358V40.156a10.434,10.434,0,0,0,5.645,1.4Zm0,3.5a10.456,10.456,0,0,0,5.821-1.492v1.4h0a.949.949,0,0,1-.109.428c-.5,1-2.691,1.93-5.624,1.93-3.44,0-5.733-1.22-5.733-2.358V43.652a10.434,10.434,0,0,0,5.645,1.4ZM44.09,23.988h0c0,1.139-2.381,2.358-5.733,2.358-3.44,0-5.732-1.22-5.733-2.358V22.672a10.434,10.434,0,0,0,5.645,1.4A10.456,10.456,0,0,0,44.09,22.58Zm-5.821-9.35C41.621,14.638,44,15.858,44,17s-2.381,2.358-5.733,2.358c-3.08,0-5.227-.978-5.645-2V17a.6.6,0,0,0-.041-.184C32.823,15.73,35.1,14.638,38.269,14.638Z"/></svg>