<svg xmlns="http://www.w3.org/2000/svg" width="55.403" height="64" viewBox="0 0 55.403 64"><title>business-consulting-icon</title><path d="M11.792,14.088a.67.67,0,0,0-.842.466l-.562,1.773a.667.667,0,0,0,.468.84h.187A.7.7,0,0,0,11.7,16.7l.561-1.773A.667.667,0,0,0,11.792,14.088Z"/><path d="M9.172,22.484h.187a.7.7,0,0,0,.655-.466l.562-1.773a.681.681,0,0,0-1.31-.373L8.7,21.645A.667.667,0,0,0,9.172,22.484Z"/><path d="M7.487,27.9h.187a.7.7,0,0,0,.655-.467l.562-1.773a.681.681,0,0,0-1.31-.373l-.561,1.773A.667.667,0,0,0,7.487,27.9Z"/><path d="M6.738,30.134A.67.67,0,0,0,5.9,30.6l-.562,1.773a.667.667,0,0,0,.468.84H5.99a.7.7,0,0,0,.655-.466l.562-1.773A.667.667,0,0,0,6.738,30.134Z"/><path d="M5.054,35.452a.67.67,0,0,0-.842.466L3.65,37.691a.667.667,0,0,0,.468.84h.187a.741.741,0,0,0,.749-.466l.468-1.773A.667.667,0,0,0,5.054,35.452Z"/><path d="M41.552,49.352H20.963A13.758,13.758,0,0,0,7.206,63.067.883.883,0,0,0,8.142,64a.883.883,0,0,0,.936-.933A11.884,11.884,0,0,1,20.963,51.218H41.552A11.884,11.884,0,0,1,53.438,63.067a.936.936,0,0,0,1.872,0A13.758,13.758,0,0,0,41.552,49.352Z"/><path d="M48.665,12.6a.81.81,0,0,0,.562.28.606.606,0,0,0,.468-.187.737.737,0,0,0,.094-1.026L48.665,10.17a.73.73,0,0,0-1.123.933Z"/><path d="M44.079,6.718,45.2,8.211a.81.81,0,0,0,.562.28.606.606,0,0,0,.468-.187.737.737,0,0,0,.094-1.026L45.2,5.785a.73.73,0,0,0-1.123.933Z"/><path d="M50.537,29.388h.094a.815.815,0,0,0,.749-.56l.281-1.866a.726.726,0,0,0-.562-.84.683.683,0,0,0-.842.56l-.281,1.866A.726.726,0,0,0,50.537,29.388Z"/><path d="M50.162,31.627a.683.683,0,0,0-.842.56l-.281,1.866a.726.726,0,0,0,.562.84h.094a.815.815,0,0,0,.749-.56l.281-1.866A.727.727,0,0,0,50.162,31.627Z"/><path d="M51.192,21.084l-.281,1.866a.726.726,0,0,0,.562.84h.094a.711.711,0,0,0,.749-.56l.281-1.866a.716.716,0,0,0-1.4-.28Z"/><path d="M48.759,40.4a.815.815,0,0,0,.749-.56l.281-1.866a.716.716,0,0,0-1.4-.28L48.1,39.557a.726.726,0,0,0,.562.84Z"/><path d="M12.541,38.624c.187,0,.281,0,.281-.093l1.685-.84a.689.689,0,1,0-.655-1.213l-1.684.84a.646.646,0,0,0-.281.933A.707.707,0,0,0,12.541,38.624Z"/><path d="M7.861,41.143l1.685-.84a.689.689,0,1,0-.655-1.213l-1.685.84a.646.646,0,0,0-.281.933.707.707,0,0,0,.655.373C7.768,41.236,7.861,41.236,7.861,41.143Z"/><path d="M43.611,20.711l-1.685.84a.646.646,0,0,0-.281.933.707.707,0,0,0,.655.373c.094,0,.187-.093.281-.093l1.685-.84a.689.689,0,1,0-.655-1.213Z"/><path d="M47.261,20.151a.344.344,0,0,0,.281-.093l1.685-.84a.689.689,0,1,0-.655-1.213l-1.685.84a.646.646,0,0,0-.281.933A.707.707,0,0,0,47.261,20.151Z"/><path d="M23.771,31.254l-1.685.84a.646.646,0,0,0-.281.933.707.707,0,0,0,.655.373.945.945,0,0,0,.281-.093l1.685-.84a.689.689,0,1,0-.655-1.213Z"/><path d="M29.479,22.484h.094a10.207,10.207,0,0,1,1.685-.093h.094a.722.722,0,0,0,.655-.746.737.737,0,0,0-.749-.746,14.114,14.114,0,0,0-1.872.187.727.727,0,0,0-.562.84A.625.625,0,0,0,29.479,22.484Z"/><path d="M12.915,13.154a2.611,2.611,0,0,0,.978-.193l8.869,11.11a12.628,12.628,0,0,0-4.232,9.421c0,.169.019.333.025.5l-1.429.712a.646.646,0,0,0-.281.933.707.707,0,0,0,.655.373c.187,0,.281,0,.281-.093l.918-.458A12.716,12.716,0,1,0,39.667,23.993a.777.777,0,0,0-.08-.389.626.626,0,0,0-.8-.321,12.735,12.735,0,0,0-1.234-.806L41.613,5.408c.011,0,.022,0,.033,0a2.706,2.706,0,1,0-2.681-3.029L15.234,9.064a2.707,2.707,0,1,0-2.319,4.091ZM37.622,25.376l.58-.289a10.863,10.863,0,1,1-14.317.39l1.632,2.045h-.435a.746.746,0,1,0,0,1.493h2.713l-.748.373a.646.646,0,0,0-.281.933.707.707,0,0,0,.655.373c.094,0,.281,0,.281-.093l1.685-.84a.617.617,0,0,0,.34-.746h7.708a.8.8,0,0,0,.749-.746.737.737,0,0,0-.749-.746H36.346l.527-2.214a.673.673,0,0,0,.467.162A.344.344,0,0,0,37.622,25.376ZM41.646,1.4a1.277,1.277,0,0,1,1.31,1.306,1.31,1.31,0,0,1-2.62,0A1.277,1.277,0,0,1,41.646,1.4ZM39.164,3.793a2.712,2.712,0,0,0,1.143,1.252l-4.018,16.8c-.03-.013-.061-.022-.092-.033,0,.012,0,.024-.007.035v0a6.926,6.926,0,0,0-.814-.3.738.738,0,1,0-.468,1.4c.367.122.7.255,1.039.4a1.82,1.82,0,0,1-.139.237c.018.008.038.014.057.023l-.935,3.909H33.6l.749-.373a.689.689,0,1,0-.655-1.213l-1.685.84a.617.617,0,0,0-.34.746h-4.32l-2.34-2.957.02-.012a.946.946,0,0,1-.106-.1A8.275,8.275,0,0,1,26.3,23.6a.689.689,0,1,0-.655-1.213,15.141,15.141,0,0,0-1.563.947,1.842,1.842,0,0,1-.142-.2l-.041.026L15.078,12.018a3.035,3.035,0,0,0,.551-1.569c0-.016,0-.03,0-.046ZM12.915,9.236a1.4,1.4,0,0,1,1.31,1.306,1.31,1.31,0,1,1-1.31-1.306Z"/><path d="M52.689,19.312A2.774,2.774,0,0,0,55.4,16.606a2.714,2.714,0,1,0-2.714,2.706Zm0-4.012A1.489,1.489,0,0,1,54,16.606a1.31,1.31,0,1,1-1.31-1.306Z"/><path d="M45.109,45.155a2.714,2.714,0,1,0,2.714-2.706A2.712,2.712,0,0,0,45.109,45.155Zm4.024.093a1.31,1.31,0,1,1-1.31-1.306A1.277,1.277,0,0,1,49.133,45.248Z"/><path d="M2.714,40.491a2.706,2.706,0,1,0,0,5.411A2.84,2.84,0,0,0,5.428,43.2,2.712,2.712,0,0,0,2.714,40.491Zm0,4.012a1.306,1.306,0,1,1,0-2.612A1.489,1.489,0,0,1,4.024,43.2,1.277,1.277,0,0,1,2.714,44.5Z"/></svg>