<svg xmlns="http://www.w3.org/2000/svg" width="35" height="35" viewBox="0 0 35 35"><title>google-plus-icon</title><path d="M0,0V35H35V0ZM20.4,18.972a7,7,0,0,1-7.325,6.186,7.722,7.722,0,1,1,0-15.444,7.326,7.326,0,0,1,5.186,2.014l-2.216,2.216a4.075,4.075,0,0,0-2.97-1.159,4.637,4.637,0,0,0-4.546,4.65,4.583,4.583,0,0,0,4.546,4.59,3.881,3.881,0,0,0,4.157-3.053H13.078v-3.1h7.306a9.05,9.05,0,0,1,.132,1.564A10.2,10.2,0,0,1,20.4,18.972Zm9.274-.962H26.971v2.7H25.049v-2.7H22.343V16.088h2.706V13.382h1.922v2.706h2.706Z"/></svg>