<svg xmlns="http://www.w3.org/2000/svg" width="70.687" height="64" viewBox="0 0 70.687 64"><title>legal-services-icon</title><path d="M70.561,39.3a1.034,1.034,0,0,0-.81-.537L56.523,4.834H59.4a1.074,1.074,0,1,0,0-2.148H38.884a3.755,3.755,0,0,0-7.2,0H11.347a1.074,1.074,0,1,0,0,2.148h2.88L.908,38.758A1.311,1.311,0,0,0,.1,39.3a1.125,1.125,0,0,0,.09,1.074c6.029,7.877,12.419,8.682,14.938,8.682,2.43,0,8.819-.9,14.939-8.682a.947.947,0,0,0,.09-1.074.783.783,0,0,0-.72-.537L16.206,4.834H31.685a3.485,3.485,0,0,0,1.17,1.79l-1.26,50.752c-3.87.806-6.479,2.954-6.479,5.55A1.091,1.091,0,0,0,26.2,64H44.644a1.091,1.091,0,0,0,1.08-1.074c0-2.6-2.7-4.655-6.569-5.55L37.8,6.534a3.343,3.343,0,0,0,1.08-1.79H54.543L41.314,38.758a1.312,1.312,0,0,0-.81.537,1.125,1.125,0,0,0,.09,1.074c6.029,7.877,12.419,8.682,14.938,8.682,2.43,0,8.819-.9,14.939-8.682A.934.934,0,0,0,70.561,39.3Zm-55.344,7.7c-1.71,0-5.579-.448-9.9-4.3h9.9a.537.537,0,1,0,0-1.074H4.148a8.094,8.094,0,0,1-.81-.9H27.005C22.056,46.366,17.2,46.993,15.217,46.993Zm13.139-8.235H2.078L15.217,5.192ZM33.665,3.67V3.491a1.645,1.645,0,0,1,1.62-1.432,1.611,1.611,0,1,1,0,3.222,1.645,1.645,0,0,1-1.62-1.432Zm1.26,3.759h.81L36.9,57.018c-.54,0-1.08-.089-1.62-.089a9.836,9.836,0,0,0-1.62.089ZM43.2,61.762H27.545c.99-1.432,3.96-2.775,7.829-2.775S42.214,60.33,43.2,61.762ZM55.533,46.993c-1.71,0-5.579-.448-9.9-4.3h9.9a.537.537,0,1,0,0-1.074H44.554a8.088,8.088,0,0,1-.81-.9H67.411C62.372,46.366,57.512,46.993,55.533,46.993ZM42.394,38.758,55.533,5.192,68.671,38.758Z" transform="translate(0)"/></svg>