<svg xmlns="http://www.w3.org/2000/svg" width="35" height="35" viewBox="0 0 35 35"><title>linkedin-icon</title><path d="M0,0V35H35V0ZM10.747,28.874a.807.807,0,0,1-.807.807H6.505a.807.807,0,0,1-.807-.807V14.222a.807.807,0,0,1,.807-.807H9.94a.807.807,0,0,1,.807.807Zm-2.53-17.7a2.929,2.929,0,1,1,2.941-2.922A2.921,2.921,0,0,1,8.217,11.174Zm21.495,7.387V29.349a.335.335,0,0,1-.335.335H24.987a.335.335,0,0,1-.335-.335V20.3a2.832,2.832,0,0,0-2.865-2.832,2.856,2.856,0,0,0-2.8,2.868v9.01a.335.335,0,0,1-.335.335H14.274a.335.335,0,0,1-.335-.335V13.75a.335.335,0,0,1,.335-.335H18.56a.335.335,0,0,1,.335.335v1.8l.046.006A4.948,4.948,0,0,1,23.269,13h.881a5.562,5.562,0,0,1,5.562,5.562Z"/></svg>