<svg xmlns="http://www.w3.org/2000/svg" width="55.403" height="64" viewBox="0 0 55.403 64"><title>trainings-icon</title><path d="M39.518,31.845a18.113,18.113,0,1,0-23.634,0,3.171,3.171,0,0,0-.137,4.421,3.154,3.154,0,0,0,0,4.267,3.172,3.172,0,0,0,1.3,5.137v7.663a1.064,1.064,0,0,0,.314.752l0,0,9.589,9.6a1.064,1.064,0,0,0,1.507,0l9.589-9.6,0,0a1.064,1.064,0,0,0,.314-.752V45.67a3.172,3.172,0,0,0,1.3-5.137,3.154,3.154,0,0,0,0-4.267,3.171,3.171,0,0,0-.138-4.421ZM27.7,61.425l-1.69-1.692h3.38ZM31.522,57.6H23.881l-4.1-4.1,1.524-1.017,2.6,1.739a1.064,1.064,0,0,0,1.182,0L27.7,52.482l2.605,1.739a1.064,1.064,0,0,0,1.182,0l2.606-1.739L35.617,53.5Zm4.7-6.26-1.54-1.027a1.064,1.064,0,0,0-1.182,0L30.9,52.051l-2.6-1.739a1.064,1.064,0,0,0-1.182,0L24.5,52.051l-2.6-1.739a1.064,1.064,0,0,0-1.182,0L19.178,51.34V45.867H36.225Zm1.065-7.606H18.112a1.067,1.067,0,0,1,0-2.133H37.29a1.067,1.067,0,0,1,0,2.133Zm0-4.267H18.112a1.067,1.067,0,0,1,0-2.133H37.29a1.067,1.067,0,0,1,0,2.133Zm0-4.267H18.112a1.067,1.067,0,0,1,0-2.133H37.286l.013,0A1.066,1.066,0,0,1,37.29,35.2ZM24.369,19.069a1.064,1.064,0,0,0,1.338,0A5.3,5.3,0,0,0,27.7,14.933a5.366,5.366,0,0,0-.056-.731c-.01-.069-.022-.137-.035-.206a4.981,4.981,0,0,0-.129-.543c-.017-.06-.032-.12-.051-.178a5.263,5.263,0,0,0-.27-.663c-.019-.038-.043-.075-.063-.114a5.215,5.215,0,0,0-.31-.517c-.019-.029-.033-.061-.053-.09a3.1,3.1,0,0,1,1.937,0c-.02.029-.034.061-.053.09a5.535,5.535,0,0,0-.31.517c-.02.038-.044.075-.063.114a5.186,5.186,0,0,0-.27.663c-.019.059-.034.118-.051.178A5.515,5.515,0,0,0,27.8,14c-.013.068-.026.136-.035.206a5.063,5.063,0,0,0-.059.731A5.3,5.3,0,0,0,29.7,19.069a1.064,1.064,0,0,0,1.338,0,5.3,5.3,0,0,0,1.995-4.135,5.375,5.375,0,0,0-.056-.731c-.01-.069-.022-.137-.035-.206a4.953,4.953,0,0,0-.129-.543c-.017-.06-.032-.12-.052-.178a5.273,5.273,0,0,0-.27-.663c-.019-.041-.044-.078-.065-.117a5.382,5.382,0,0,0-.3-.511c-.02-.031-.035-.064-.057-.094a3.067,3.067,0,0,1,.969-.157,3.407,3.407,0,0,1,3.2,3.433,5.257,5.257,0,0,1-1.894,4.048l-4.115,3.434a1.066,1.066,0,0,0-.384.819v7.467H25.57V23.467a1.066,1.066,0,0,0-.384-.819l-4.115-3.434a5.259,5.259,0,0,1-1.894-4.048,3.407,3.407,0,0,1,3.2-3.433,3.06,3.06,0,0,1,.967.157c-.021.03-.036.064-.056.094a5.185,5.185,0,0,0-.3.511c-.02.04-.045.077-.065.117a5.291,5.291,0,0,0-.269.663c-.019.059-.034.12-.052.178a5.5,5.5,0,0,0-.129.543c-.013.068-.026.136-.035.206a5.547,5.547,0,0,0-.055.731A5.3,5.3,0,0,0,24.369,19.069Zm.136-4.135a3.134,3.134,0,0,1,.071-.625c.011-.049.021-.1.034-.147a3.15,3.15,0,0,1,.206-.582l.023-.042a3.194,3.194,0,0,1,.2-.314,3.217,3.217,0,0,1,.2.314c.006.014.016.027.023.04a3.106,3.106,0,0,1,.206.582c.013.049.023.1.034.147a2.776,2.776,0,0,1,0,1.251c-.011.049-.021.1-.034.147a3.16,3.16,0,0,1-.206.582c-.006.014-.016.028-.023.042a3.232,3.232,0,0,1-.2.314,3.208,3.208,0,0,1-.2-.314c-.007-.014-.017-.028-.023-.042a3.151,3.151,0,0,1-.206-.582c-.013-.049-.023-.1-.034-.147A3.134,3.134,0,0,1,24.5,14.933Zm5.327,0a3.134,3.134,0,0,1,.071-.625c.011-.049.021-.1.034-.147a3.154,3.154,0,0,1,.206-.582l.023-.042a3.229,3.229,0,0,1,.2-.314,3.217,3.217,0,0,1,.2.314c.006.014.016.027.023.04a3.1,3.1,0,0,1,.206.582c.013.049.023.1.034.147a2.781,2.781,0,0,1,0,1.251c-.011.049-.021.1-.034.147a3.156,3.156,0,0,1-.206.582c-.006.014-.016.028-.023.042a3.232,3.232,0,0,1-.2.314,3.244,3.244,0,0,1-.2-.314c-.007-.014-.017-.028-.023-.042a3.156,3.156,0,0,1-.206-.582c-.013-.049-.023-.1-.034-.147A3.134,3.134,0,0,1,29.832,14.933Zm7.435,16h-5.3V23.966l3.731-3.114a7.383,7.383,0,0,0,2.661-5.686A5.524,5.524,0,0,0,33.028,9.6a5.194,5.194,0,0,0-2.667.744,5.314,5.314,0,0,0-5.32,0A5.2,5.2,0,0,0,22.374,9.6a5.524,5.524,0,0,0-5.327,5.566,7.387,7.387,0,0,0,2.662,5.687l3.731,3.113v6.967h-5.3a15.982,15.982,0,1,1,19.131,0Z"/><polygon points="49.763 1.823 48.256 0.315 43.994 4.581 45.501 6.09 49.763 1.823"/><polygon points="45.5 30.177 43.993 31.686 48.255 35.953 49.761 34.444 45.5 30.177"/><rect x="49.01" y="17.067" width="6.393" height="2.133"/><polygon points="11.408 4.58 7.146 0.313 5.639 1.821 9.901 6.088 11.408 4.58"/><polygon points="5.639 34.445 7.146 35.954 11.408 31.687 9.901 30.179 5.639 34.445"/><rect y="17.067" width="6.393" height="2.133"/><rect x="40.487" y="51.2" width="2.131" height="2.133"/><rect x="44.748" y="51.2" width="2.131" height="2.133"/><rect x="49.01" y="51.2" width="2.131" height="2.133"/><rect x="4.262" y="51.2" width="2.131" height="2.133"/><rect x="8.523" y="51.2" width="2.131" height="2.133"/><rect x="12.786" y="51.2" width="2.131" height="2.133"/></svg>