<svg xmlns="http://www.w3.org/2000/svg" width="64" height="64" viewBox="0 0 64 64"><title>transfer-pricing-icon</title><path d="M54.627,9.373A32,32,0,1,0,9.373,54.627,32,32,0,1,0,54.627,9.373ZM24.7,3.468A22.67,22.67,0,0,0,20.13,9.925q-.375.756-.721,1.555a29.548,29.548,0,0,1-5.038-3.057A29.357,29.357,0,0,1,24.7,3.468Zm6.024,27.258H18.12a51.8,51.8,0,0,1,2.7-15.876,31.359,31.359,0,0,0,9.9,1.958ZM12.349,10.085a32.18,32.18,0,0,0,6.122,3.774,54.327,54.327,0,0,0-2.9,16.866H2.579A29.388,29.388,0,0,1,12.349,10.085Zm-9.77,23.19H15.565a54.586,54.586,0,0,0,2.867,17.012,32.166,32.166,0,0,0-6.006,3.7A29.389,29.389,0,0,1,2.579,33.275ZM14.458,55.641a29.543,29.543,0,0,1,4.905-2.971q.367.853.767,1.66a23.265,23.265,0,0,0,4.215,6.112A29.362,29.362,0,0,1,14.458,55.641Zm16.267,5.682c-3.078-.615-5.99-3.445-8.311-8.125q-.367-.741-.705-1.526a28.822,28.822,0,0,1,9.016-1.8Zm0-14a31.354,31.354,0,0,0-9.942,1.973,52.072,52.072,0,0,1-2.668-16.019h12.61Zm0-33.065h0a28.826,28.826,0,0,1-8.968-1.782q.316-.725.657-1.416c2.321-4.68,5.233-7.51,8.311-8.125Zm2.55,47.167V2.577a29.451,29.451,0,0,1,0,58.846Z"/><path d="M42.853,53.572a1.275,1.275,0,0,0-1.728.514q-.133.247-.27.486a1.275,1.275,0,1,0,2.216,1.261q.15-.263.3-.534A1.275,1.275,0,0,0,42.853,53.572Z"/><path d="M52.795,23.7l-5.809-4.977a1.275,1.275,0,0,0-1.8.139l-4.977,5.809a1.275,1.275,0,0,0,1.936,1.659l3.015-3.519a58.347,58.347,0,0,1,.734,9.319,52.157,52.157,0,0,1-2.907,17.79,1.275,1.275,0,1,0,2.393.882,54.723,54.723,0,0,0,3.065-18.672,61.069,61.069,0,0,0-.719-9.413l3.408,2.92A1.275,1.275,0,1,0,52.795,23.7Z"/></svg>