<svg xmlns="http://www.w3.org/2000/svg" width="56.889" height="64" viewBox="0 0 56.889 64"><title>accounting-icon</title><path d="M48.333,37.489a.848.848,0,0,0-1.146.325.722.722,0,0,0,.353,1.057c4.939,2.358,7.585,5.286,7.585,8.457,0,5.936-9.614,11.141-22.491,12.036a.975.975,0,0,0-.794.894.847.847,0,0,0,.882.732c14.024-.976,24.255-6.75,24.167-13.581C56.888,43.588,53.8,40.091,48.333,37.489Z"/><path d="M17.111,52.291c3.969,0,7.056-1.626,7.232-3.578h0V40.845a10.75,10.75,0,0,0,5.468,1.279c3.969,0,7.056-1.545,7.232-3.578V7.075h0v-3.5a.607.607,0,0,0-.245-.492C36.343,1.3,33.452,0,29.812,0c-3.961,0-7.042,1.539-7.055,3.566l0,.011V10.57h0v3.5h0v3.5h0v3.5h0v3.5h0v3.415h0v1.074a10.434,10.434,0,0,0-5.645-1.4c-3.968,0-7.054,1.544-7.056,3.576h0V48.711h0C10.055,50.745,13.142,52.291,17.111,52.291Zm7.232-18.52a10.75,10.75,0,0,0,5.468,1.279,10.456,10.456,0,0,0,5.821-1.492v1.41h0c0,1.138-2.381,2.358-5.733,2.358-2.91,0-4.982-.874-5.556-1.832Zm11.289-23.2h0c0,1.139-2.381,2.358-5.733,2.358-3.439,0-5.732-1.219-5.733-2.358V9.254a10.433,10.433,0,0,0,5.645,1.4,10.405,10.405,0,0,0,5.821-1.527Zm0-3.494c0,1.138-2.382,2.357-5.733,2.357-3.44,0-5.733-1.22-5.733-2.358h0V5.757a10.432,10.432,0,0,0,5.646,1.4A10.11,10.11,0,0,0,35.632,5.6Zm-5.821,7.073a10.4,10.4,0,0,0,5.821-1.527v1.446h0c0,1.138-2.381,2.358-5.733,2.358-3.439,0-5.732-1.22-5.733-2.358V12.75A10.434,10.434,0,0,0,29.811,14.149Zm0,3.5a10.405,10.405,0,0,0,5.821-1.527v1.445h0c0,1.138-2.381,2.358-5.733,2.358-3.439,0-5.732-1.22-5.733-2.358V16.248A10.434,10.434,0,0,0,29.811,17.647Zm0,3.5a10.405,10.405,0,0,0,5.821-1.527v1.445h0c0,1.138-2.381,2.358-5.733,2.358-3.439,0-5.732-1.219-5.733-2.358V19.744A10.434,10.434,0,0,0,29.811,21.143Zm0,3.5a10.405,10.405,0,0,0,5.821-1.527v1.444h0c0,1.138-2.381,2.358-5.733,2.358-3.439,0-5.732-1.219-5.733-2.358V23.241A10.434,10.434,0,0,0,29.811,24.64Zm0,3.5a10.405,10.405,0,0,0,5.821-1.527v1.364h0c0,1.139-2.381,2.358-5.733,2.358-3.439,0-5.732-1.219-5.733-2.358V26.737A10.434,10.434,0,0,0,29.811,28.136Zm0,3.416a10.456,10.456,0,0,0,5.821-1.492v1.41h0c0,1.138-2.381,2.358-5.733,2.358-2.91,0-4.982-.874-5.556-1.832v-.771a.6.6,0,0,0-.177-.422v-.652A10.434,10.434,0,0,0,29.811,31.552Zm-7.056,3.415h0v.275c-.586.961-2.714,1.84-5.556,1.84-3.44,0-5.733-1.22-5.733-2.358V33.407a10.434,10.434,0,0,0,5.645,1.4,10.434,10.434,0,0,0,5.645-1.4ZM17.111,38.3a10.719,10.719,0,0,0,5.645-1.375v1.617c0,.058.011.115.016.173-.566.97-2.708,1.862-5.573,1.862-3.44,0-5.733-1.22-5.733-2.358V36.9A10.434,10.434,0,0,0,17.111,38.3Zm0,3.5a10.4,10.4,0,0,0,5.821-1.527v1.446c0,1.138-2.381,2.358-5.733,2.358-3.44,0-5.733-1.22-5.733-2.358V40.4A10.434,10.434,0,0,0,17.111,41.8Zm0,3.5a10.4,10.4,0,0,0,5.821-1.527v1.445c0,1.138-2.381,2.358-5.733,2.358-3.44,0-5.733-1.22-5.733-2.358V43.9A10.434,10.434,0,0,0,17.111,45.3Zm0,3.5a10.4,10.4,0,0,0,5.821-1.527v1.445c0,1.139-2.381,2.358-5.733,2.358-3.44,0-5.733-1.22-5.733-2.358V47.394A10.434,10.434,0,0,0,17.111,48.793ZM29.9,40.9c-2.91,0-4.982-.874-5.556-1.832v-1.8a10.75,10.75,0,0,0,5.468,1.279,10.456,10.456,0,0,0,5.821-1.492v1.491C35.632,39.684,33.251,40.9,29.9,40.9ZM29.812,1.138c3.352,0,5.733,1.3,5.733,2.358,0,1.138-2.381,2.358-5.733,2.358-3.083,0-5.231-.98-5.646-2V3.577a.609.609,0,0,0-.05-.226C24.308,2.257,26.6,1.138,29.812,1.138ZM17.111,28.87c3.012,0,5.224.985,5.645,2.011v.59h0v.1c-.421,1.026-2.633,2.011-5.645,2.011-3.079,0-5.226-.978-5.645-2v-.36a.6.6,0,0,0-.041-.185C11.665,29.961,13.941,28.87,17.111,28.87Z"/><path d="M27.165,56.925a.9.9,0,0,0-1.235,0,.745.745,0,0,0,0,1.138L27.6,59.6C13.278,59.383,1.764,54.024,1.764,47.492c0-2.846,2.2-5.611,6.262-7.807a.791.791,0,0,0,.353-1.138.933.933,0,0,0-1.235-.325C2.558,40.742,0,43.995,0,47.41c0,7.57,12.027,13.5,27.531,13.732l-1.6,1.475a.745.745,0,0,0,0,1.139.834.834,0,0,0,.617.244,1,1,0,0,0,.617-.244l3.087-2.846a.745.745,0,0,0,0-1.138Z"/><path d="M38.269,13.987c-3.528,0-6.35,1.3-6.35,3.009V44.971c0,1.464,2.2,2.684,5.116,2.928.441,0,.882.081,1.323.081A7.232,7.232,0,0,0,39.68,47.9c2.911-.244,5.116-1.464,5.116-2.928V17C44.619,15.37,41.8,13.987,38.269,13.987Z" style="fill:#fff"/><path d="M45.255,16.5c-.455-1.784-3.346-3.085-6.986-3.085-3.966,0-7.052,1.543-7.056,3.574v7h0v3.5h0v3.5h0v3.5h0v3.5h0v3.5h0v3.5h0c0,2.033,3.087,3.578,7.056,3.578,3.225,0,5.867-1.02,6.84-2.493A2.326,2.326,0,0,0,45.5,44.97V17A.607.607,0,0,0,45.255,16.5ZM32.624,19.175a10.433,10.433,0,0,0,5.645,1.4,10.153,10.153,0,0,0,5.821-1.519v1.438c0,1.138-2.381,2.358-5.733,2.358-3.44,0-5.733-1.22-5.733-2.358Zm11.466,8.31h0c0,1.138-2.381,2.358-5.733,2.358-3.44,0-5.732-1.22-5.733-2.358V26.167a10.434,10.434,0,0,0,5.645,1.4,10.456,10.456,0,0,0,5.821-1.492Zm-5.821,3.579a10.456,10.456,0,0,0,5.821-1.492v1.409h0c0,1.139-2.381,2.358-5.733,2.358-3.44,0-5.732-1.22-5.733-2.358V29.665A10.434,10.434,0,0,0,38.269,31.064Zm0,3.5a10.456,10.456,0,0,0,5.821-1.492v1.41h0c0,1.139-2.381,2.358-5.733,2.358-3.44,0-5.732-1.22-5.733-2.358V33.162A10.434,10.434,0,0,0,38.269,34.561Zm0,3.5a10.456,10.456,0,0,0,5.821-1.492v1.41h0c0,1.139-2.381,2.358-5.733,2.358-3.44,0-5.732-1.22-5.733-2.358V36.659A10.434,10.434,0,0,0,38.269,38.058Zm0,3.5a10.456,10.456,0,0,0,5.821-1.492v1.41h0c0,1.138-2.381,2.358-5.733,2.358-3.44,0-5.732-1.22-5.733-2.358V40.156A10.434,10.434,0,0,0,38.269,41.555Zm0,3.5a10.456,10.456,0,0,0,5.821-1.492V44.97h0a.949.949,0,0,1-.109.428c-.5,1-2.691,1.93-5.624,1.93-3.44,0-5.733-1.22-5.733-2.358V43.652A10.434,10.434,0,0,0,38.269,45.051ZM44.09,23.988h0c0,1.139-2.381,2.358-5.733,2.358-3.44,0-5.732-1.22-5.733-2.358V22.672a10.434,10.434,0,0,0,5.645,1.4,10.456,10.456,0,0,0,5.821-1.492Zm-5.821-9.35C41.621,14.638,44,15.858,44,17s-2.381,2.358-5.733,2.358c-3.08,0-5.227-.978-5.645-2V17a.6.6,0,0,0-.041-.184C32.823,15.73,35.1,14.638,38.269,14.638Z"/></svg>