<svg xmlns="http://www.w3.org/2000/svg" width="59.723" height="64" viewBox="0 0 59.723 64"><title>audit-icon</title><path d="M19.395,27.363A2.631,2.631,0,1,1,24.5,26.211l9.473,2.038a2.643,2.643,0,0,1,2.191-1.309l1.308-4.815A2.688,2.688,0,0,1,36.414,20a2.635,2.635,0,0,1,5.27-.074l3.308,1.263a2.632,2.632,0,0,1,1.977-.922,2.661,2.661,0,0,1,2.639,2.667A2.554,2.554,0,0,1,46.969,25.6a2.661,2.661,0,0,1-2.639-2.667c0-.022.006-.042.006-.064l-3.2-1.213a2.68,2.68,0,0,1-2,1l-1.333,4.81a2.688,2.688,0,0,1,1.07,2.132,2.633,2.633,0,0,1-5.232.452l-9.478-2.061A2.686,2.686,0,0,1,21.9,29.244a2.578,2.578,0,0,1-1.417-.426l-9.207,6.915H53.214V1.778H6.333V35.733H8.327Zm-7.608-5.052A2.585,2.585,0,0,1,13.3,22.8l8.207-7.346a2.643,2.643,0,1,1,5.058-1.05,2.312,2.312,0,0,1-.108.814l2.119,1.966a2.568,2.568,0,0,1,2.822.088l9.8-9.766a2.624,2.624,0,1,1,2.345,1.476,2.579,2.579,0,0,1-1.112-.255L32.389,18.6a2.645,2.645,0,0,1,.156.864,2.605,2.605,0,0,1-2.639,2.667,2.665,2.665,0,0,1-2.435-3.687L25.443,16.6a2.687,2.687,0,0,1-1.519.472,2.578,2.578,0,0,1-1.418-.427l-8.258,7.4a2.629,2.629,0,1,1-2.462-1.733Z" style="fill:none"/><path d="M23.221,26.489A1.252,1.252,0,0,0,21.9,25.155a1.333,1.333,0,0,0,0,2.667A1.36,1.36,0,0,0,23.221,26.489Z" style="fill:none"/><path d="M11.786,26.222a1.333,1.333,0,0,0,0-2.667,1.333,1.333,0,0,0,0,2.667Z" style="fill:none"/><path d="M23.925,15.644a1.36,1.36,0,0,0,1.319-1.333,1.252,1.252,0,0,0-1.319-1.333,1.333,1.333,0,0,0,0,2.667Z" style="fill:none"/><path d="M29.906,20.711a1.333,1.333,0,0,0,0-2.667,1.333,1.333,0,0,0,0,2.667Z" style="fill:none"/><path d="M43.539,7.556a1.3,1.3,0,0,0,1.319-1.333,1.36,1.36,0,0,0-1.319-1.333A1.3,1.3,0,0,0,42.22,6.223,1.3,1.3,0,0,0,43.539,7.556Z" style="fill:none"/><polygon points="57.085 40.178 57.085 37.511 30.873 37.511 2.463 37.511 2.463 40.178 30.873 40.178 57.085 40.178" style="fill:none"/><path d="M48.289,22.844a1.252,1.252,0,0,0-1.319-1.333,1.333,1.333,0,1,0,1.319,1.333Z" style="fill:none"/><path d="M37.558,29.511a1.36,1.36,0,0,0-1.319-1.333,1.333,1.333,0,0,0,0,2.667A1.36,1.36,0,0,0,37.558,29.511Z" style="fill:none"/><path d="M32.923,41.956H26.577a1.046,1.046,0,0,1-.1.266L14.026,62.578H45.434L32.984,42.133A.846.846,0,0,1,32.923,41.956Z" style="fill:none"/><path d="M39.053,21.244a1.36,1.36,0,0,0,1.319-1.333,1.252,1.252,0,0,0-1.319-1.333,1.333,1.333,0,0,0,0,2.667Z" style="fill:none"/><path d="M11.786,27.644a2.649,2.649,0,0,0,2.462-3.6l8.258-7.4a2.578,2.578,0,0,0,1.418.427,2.687,2.687,0,0,0,1.519-.472l2.027,1.851a2.665,2.665,0,0,0,2.435,3.687,2.605,2.605,0,0,0,2.639-2.667,2.645,2.645,0,0,0-.156-.864l10.039-9.88a2.579,2.579,0,0,0,1.112.255A2.7,2.7,0,1,0,41.194,7.5l-9.8,9.766a2.568,2.568,0,0,0-2.822-.088l-2.119-1.966a2.312,2.312,0,0,0,.108-.814,2.639,2.639,0,1,0-5.058,1.05L13.3,22.8a2.585,2.585,0,0,0-1.512-.486,2.667,2.667,0,0,0,0,5.333ZM43.539,4.889a1.36,1.36,0,0,1,1.319,1.333,1.319,1.319,0,1,1-1.319-1.333ZM29.906,18.044a1.333,1.333,0,0,1,0,2.667,1.333,1.333,0,0,1,0-2.667Zm-5.981-5.066a1.252,1.252,0,0,1,1.319,1.333,1.36,1.36,0,0,1-1.319,1.333,1.333,1.333,0,0,1,0-2.667ZM11.786,23.555a1.333,1.333,0,0,1,0,2.667,1.333,1.333,0,0,1,0-2.667Z"/><path d="M59.02,62.578H47.248a.892.892,0,0,0-.1-.623l-12.178-20h23a.886.886,0,0,0,.88-.889V36.622a.835.835,0,0,0-.88-.889H54.974V.889A.835.835,0,0,0,54.094,0H5.453a.835.835,0,0,0-.88.889V35.734H1.583a.835.835,0,0,0-.88.889v4.444a.835.835,0,0,0,.88.889H24.546L12.314,62.044a.988.988,0,0,0-.132.534H.7A.711.711,0,0,0,.7,64H59.02a.711.711,0,0,0,0-1.422ZM6.333,1.778H53.214V35.733H11.278l9.207-6.915a2.578,2.578,0,0,0,1.417.426,2.686,2.686,0,0,0,2.266-1.253l9.478,2.061a2.633,2.633,0,0,0,5.232-.452,2.688,2.688,0,0,0-1.07-2.132l1.333-4.81a2.68,2.68,0,0,0,2-1l3.2,1.213c0,.022-.006.042-.006.064A2.661,2.661,0,0,0,46.969,25.6a2.554,2.554,0,0,0,2.639-2.667,2.661,2.661,0,0,0-2.639-2.667,2.632,2.632,0,0,0-1.977.922l-3.308-1.263a2.635,2.635,0,0,0-5.27.074,2.688,2.688,0,0,0,1.061,2.125L36.168,26.94a2.643,2.643,0,0,0-2.191,1.309L24.5,26.211a2.631,2.631,0,1,0-5.109,1.152L8.327,35.733H6.333ZM20.582,26.489A1.3,1.3,0,0,1,21.9,25.155a1.252,1.252,0,0,1,1.319,1.333A1.36,1.36,0,0,1,21.9,27.822,1.3,1.3,0,0,1,20.582,26.489Zm14.337,3.022a1.3,1.3,0,0,1,1.319-1.333,1.333,1.333,0,0,1,0,2.667A1.3,1.3,0,0,1,34.919,29.511Zm2.815-9.6a1.3,1.3,0,0,1,1.319-1.333,1.252,1.252,0,0,1,1.319,1.333,1.36,1.36,0,0,1-1.319,1.333A1.3,1.3,0,0,1,37.734,19.911Zm7.916,2.933a1.3,1.3,0,0,1,1.319-1.333,1.252,1.252,0,0,1,1.319,1.333,1.319,1.319,0,1,1-2.639,0ZM2.463,40.178V37.511H57.085v2.667H2.463Zm11.563,22.4L26.475,42.222a1.046,1.046,0,0,0,.1-.266h6.346a.846.846,0,0,0,.061.177l12.45,20.445Z"/></svg>