<svg xmlns="http://www.w3.org/2000/svg" width="71.567" height="61.647" viewBox="0 0 71.567 61.647"><title>internal-control-icon</title><path d="M69.441,49.317,55.787,35.643a24.534,24.534,0,0,0-4.364-28.47,24.022,24.022,0,0,0-34.245,0A24.266,24.266,0,0,0,34.3,48.645a24.8,24.8,0,0,0,11.3-2.8L59.257,59.517a7.375,7.375,0,0,0,5.148,2.13,7.506,7.506,0,0,0,5.036-2.018,7.314,7.314,0,0,0,0-10.312Zm-1.455,8.63A5.385,5.385,0,0,1,64.4,59.4a4.724,4.724,0,0,1-3.581-1.457L46.611,43.713a1.015,1.015,0,0,0-.783-.336c-.224,0-.448,0-.56.224a21.726,21.726,0,0,1-25.825-3.053l1.317-1.319A.871.871,0,0,0,19.528,38l-1.309,1.311a22.129,22.129,0,0,1,.638-30.565,21.373,21.373,0,0,1,15.556-6.5A22.088,22.088,0,0,1,53.549,35.195a1.193,1.193,0,0,0,.224,1.345L67.986,50.774a5.4,5.4,0,0,1,1.455,3.587A4.738,4.738,0,0,1,67.986,57.948Z"/><path d="M34.413,7.4A16.757,16.757,0,0,0,22.55,12.33a17.007,17.007,0,0,0-4.924,11.881A16.825,16.825,0,0,0,34.413,41.023,16.6,16.6,0,0,0,46.275,35.98,16.757,16.757,0,0,0,34.413,7.4ZM45.044,34.971a15.089,15.089,0,0,1-20.617.585l1.145-1.146a.871.871,0,1,0-1.231-1.233L23.2,34.323a15.037,15.037,0,1,1,21.848.648Z"/><path d="M34.3,10.648a13.272,13.272,0,0,0-9.512,3.923A.871.871,0,1,0,26.019,15.8,11.879,11.879,0,0,1,42.806,32.616a.881.881,0,0,0,0,1.233.854.854,0,0,0,.56.224c.224,0,.448,0,.448-.336A13.506,13.506,0,0,0,34.3,10.648Z"/><path d="M31.616,21.521a4.063,4.063,0,0,0,0,5.716,3.971,3.971,0,0,0,2.8,1.121,4.973,4.973,0,0,0,2.91-1.121,4.039,4.039,0,1,0-5.707-5.716Zm4.365,4.371a2.22,2.22,0,0,1-2.422.518l1.525-1.528a.871.871,0,1,0-1.231-1.233l-1.567,1.569,0,.008a2.29,2.29,0,0,1,2.133-3.257,2.03,2.03,0,0,1,1.567.672A2.3,2.3,0,0,1,35.981,25.892Z"/><path d="M10.016,47.524,8.449,49.093a.881.881,0,0,0,0,1.233.854.854,0,0,0,.56.224,1.589,1.589,0,0,0,.671-.224l1.567-1.569a.871.871,0,0,0-1.231-1.233Z"/><path d="M14.828,42.7l-1.567,1.569a.88.88,0,0,0,0,1.233.854.854,0,0,0,.56.224,1.589,1.589,0,0,0,.671-.224l1.567-1.569A.871.871,0,0,0,14.828,42.7Z"/><path d="M29.041,28.469l-1.567,1.569a.88.88,0,0,0,0,1.233.854.854,0,0,0,.559.224,1.589,1.589,0,0,0,.672-.224L30.272,29.7a.871.871,0,1,0-1.231-1.233Z"/><path d="M1.175,52.344a4.064,4.064,0,0,0,0,5.716,3.972,3.972,0,0,0,2.8,1.121,4.973,4.973,0,0,0,2.91-1.121,4.039,4.039,0,0,0-5.707-5.716Z"/></svg>