<svg xmlns="http://www.w3.org/2000/svg" width="63.323" height="64" viewBox="0 0 63.323 64"><title>it-audit-icon</title><path d="M21.306,3.21a.361.361,0,0,0,.3-.1l1.784-.6a.719.719,0,0,0,.5-.9.708.708,0,0,0-.892-.5c-.595.2-1.288.4-1.883.6a.882.882,0,0,0-.5,1A.746.746,0,0,0,21.306,3.21Z"/><path d="M16.054,5.618c.1,0,.2,0,.5-.2.595-.3,1.09-.6,1.685-.9a.785.785,0,0,0,.3-1,.766.766,0,0,0-.991-.3c-.595.3-1.189.7-1.784,1a.7.7,0,0,0-.3,1A.544.544,0,0,0,16.054,5.618Z"/><path d="M56.882,48.552c-.4.6-.694,1.1-1.09,1.6a.784.784,0,0,0,.2,1c.1.1.2.1.4.1.3,0,.5-.1.5-.2.4-.6.793-1.1,1.189-1.705a.784.784,0,0,0-.2-1A.762.762,0,0,0,56.882,48.552Z"/><path d="M49.053,56.777a15.108,15.108,0,0,1-1.586,1.1.76.76,0,0,0-.2,1,.544.544,0,0,0,.595.4c.1,0,.3,0,.3-.2a9.8,9.8,0,0,0,1.685-1.1.691.691,0,0,0,.2-1A.673.673,0,0,0,49.053,56.777Z"/><path d="M53.314,52.966a18.41,18.41,0,0,1-1.387,1.4.794.794,0,0,0,0,1.1,1.4,1.4,0,0,0,.595.2.752.752,0,0,0,.5-.2,18.421,18.421,0,0,0,1.387-1.4.794.794,0,0,0,0-1.1A.771.771,0,0,0,53.314,52.966Z"/><path d="M44.1,59.687c-.595.2-1.189.5-1.784.7a.826.826,0,0,0-.4,1,.746.746,0,0,0,.694.5h.2c.694-.3,1.288-.5,1.883-.8a.736.736,0,0,0,.4-1A.721.721,0,0,0,44.1,59.687Z"/><path d="M27.053,1.806h.1c.595-.1,1.288-.1,1.883-.2a.772.772,0,0,0,.694-.8.769.769,0,0,0-.793-.7,13.269,13.269,0,0,0-1.982.2.781.781,0,0,0-.595.9A.666.666,0,0,0,27.053,1.806Z"/><path d="M32.9,1.5a13.784,13.784,0,0,1,1.982.1.865.865,0,0,0,.793-.6.772.772,0,0,0-.694-.8A12.06,12.06,0,0,0,33,0a.769.769,0,0,0-.793.7A.772.772,0,0,0,32.9,1.5Z"/><path d="M58.963,16.251a15.136,15.136,0,0,0-.991-1.705.762.762,0,0,0-.991-.2.784.784,0,0,0-.2,1,8.68,8.68,0,0,1,.991,1.6.746.746,0,0,0,.694.4c.2,0,.3,0,.2-.1A.7.7,0,0,0,58.963,16.251Z"/><path d="M60.548,42.834a.721.721,0,0,0-.991.4c-.3.6-.5,1.2-.793,1.806a.826.826,0,0,0,.4,1,.361.361,0,0,0,.3.1.746.746,0,0,0,.694-.4c.3-.7.5-1.3.793-1.906A.736.736,0,0,0,60.548,42.834Z"/><path d="M54.6,12.238a.852.852,0,0,0,.594.3,1.663,1.663,0,0,0,.5-.2.8.8,0,0,0,.1-1.1c-.5-.5-.892-1-1.387-1.5a.771.771,0,0,0-1.09,0,.794.794,0,0,0,0,1.1A8.622,8.622,0,0,1,54.6,12.238Z"/><path d="M60.152,22.37a.746.746,0,0,0,.694.5c.1,0,.2,0,.2-.1a.719.719,0,0,0,.5-.9,14.74,14.74,0,0,0-.694-1.906.721.721,0,0,0-.991-.4.736.736,0,0,0-.4,1A13.49,13.49,0,0,1,60.152,22.37Z"/><path d="M61.143,25.981c.1.6.2,1.3.3,1.906a.682.682,0,0,0,.694.7c.595,0,.793-.4.793-.9-.1-.7-.2-1.3-.3-2.006a.772.772,0,0,0-.892-.6A.781.781,0,0,0,61.143,25.981Z"/><path d="M50.44,8.125c.2.1.3.2.5.2a.544.544,0,0,0,.5-.3.793.793,0,0,0-.1-1.1c-.5-.4-.991-.8-1.586-1.2a.762.762,0,0,0-.991.2.784.784,0,0,0,.2,1Z"/><path d="M62.034,37.116a.772.772,0,0,0-.892.6,10.765,10.765,0,0,1-.4,1.906.719.719,0,0,0,.5.9h.2a.784.784,0,0,0,.793-.5c.1-.7.3-1.3.4-2.006A.781.781,0,0,0,62.034,37.116Z"/><path d="M44,4.113c.595.3,1.09.6,1.685.9a.741.741,0,0,0,.4.1.734.734,0,0,0,.595-.5.7.7,0,0,0-.3-1l-1.784-.9a.808.808,0,0,0-.991.4A.826.826,0,0,0,44,4.113Z"/><path d="M62.53,31.1a.787.787,0,0,0-.793.8V32c0,.6-.1,1.3-.1,1.906a.659.659,0,0,0,.694.8.954.954,0,0,0,.892-.7,12.942,12.942,0,0,0,.1-2.006v-.1A.786.786,0,0,0,62.53,31.1Z"/><path d="M38.549,2.307a10.353,10.353,0,0,1,1.883.5h.2a.726.726,0,0,0,.694-.6.719.719,0,0,0-.5-.9c-.694-.2-1.288-.3-1.982-.5a.772.772,0,0,0-.892.6A.781.781,0,0,0,38.549,2.307Z"/><path d="M16.45,58.383a13.862,13.862,0,0,1-1.586-1,.763.763,0,0,0-.991.2.784.784,0,0,0,.2,1,9.8,9.8,0,0,0,1.685,1.1.59.59,0,0,0,.4.1.616.616,0,0,0,.595-.4A.721.721,0,0,0,16.45,58.383Z"/><path d="M11.3,9.129a1.524,1.524,0,0,0,.595-.3l1.486-1.2a.8.8,0,0,0,.1-1.1.778.778,0,0,0-1.09-.1c-.595.4-1.09.9-1.586,1.3a.8.8,0,0,0-.1,1.1A.853.853,0,0,0,11.3,9.129Z"/><path d="M5.45,15.248a.7.7,0,0,0-.991.3,16.306,16.306,0,0,0-.991,1.806.7.7,0,0,0,.3,1,.361.361,0,0,0,.3.1c.3,0,.5-.2.793-.5.3-.6.595-1.1.892-1.705A.721.721,0,0,0,5.45,15.248Z"/><path d="M6.639,49.354a.673.673,0,0,0-.991-.2.691.691,0,0,0-.2,1c.4.5.793,1.1,1.189,1.605a.853.853,0,0,0,.595.3h.4a.8.8,0,0,0,.1-1.1C7.333,50.357,7.036,49.856,6.639,49.354Z"/><path d="M10.405,53.668a.771.771,0,0,0-1.09,0,.794.794,0,0,0,0,1.1,19.111,19.111,0,0,0,1.486,1.4c.2.1.3.2.5.2a.6.6,0,0,0,.595-.3.907.907,0,0,0-.1-1.1A16.541,16.541,0,0,1,10.405,53.668Z"/><path d="M27.252,62.194c-.595-.1-1.288-.2-1.883-.3a.772.772,0,0,0-.892.6.781.781,0,0,0,.595.9c.694.1,1.288.2,1.982.3h.1a.763.763,0,0,0,.1-1.5Z"/><path d="M38.747,61.592a12.616,12.616,0,0,1-1.883.4.781.781,0,0,0-.595.9.665.665,0,0,0,.694.6h.1a13.887,13.887,0,0,0,1.982-.4.711.711,0,0,0,.595-.9A.7.7,0,0,0,38.747,61.592Z"/><path d="M33.1,62.5H31.116a.769.769,0,0,0-.793.7.712.712,0,0,0,.694.8H33.2a.754.754,0,0,0-.1-1.5Z"/><path d="M21.8,60.89c-.595-.2-1.189-.5-1.784-.7a.721.721,0,0,0-.991.4.736.736,0,0,0,.4,1c.595.2,1.288.5,1.883.7h.2a1.218,1.218,0,0,0,.793-.4A.83.83,0,0,0,21.8,60.89Z"/><path d="M3.865,44.238a.721.721,0,0,0-.991-.4.736.736,0,0,0-.4,1l.892,1.806a.746.746,0,0,0,.694.4c.1,0,.3,0,.3-.1a.785.785,0,0,0,.3-1C4.36,45.442,4.162,44.84,3.865,44.238Z"/><path d="M1.685,23.975h.2a1.009,1.009,0,0,0,.793-.5l.595-1.806a.83.83,0,0,0-.5-1,.815.815,0,0,0-.991.5c-.2.6-.4,1.2-.595,1.906A.719.719,0,0,0,1.685,23.975Z"/><path d="M7.234,13.442c.2,0,.4-.1.694-.4l1.189-1.5a.908.908,0,0,0-.1-1.1.88.88,0,0,0-1.09.1c-.4.5-.892,1.1-1.288,1.6a.793.793,0,0,0,.1,1.1C6.937,13.342,7.036,13.442,7.234,13.442Z"/><path d="M.793,29.793a.865.865,0,0,0,.793-.6,12.431,12.431,0,0,1,.2-1.906.732.732,0,0,0-.595-.9.772.772,0,0,0-.892.6c-.1.7-.1,1.3-.2,2.006A.659.659,0,0,0,.793,29.793Z"/><path d="M2.676,40.627a13.5,13.5,0,0,1-.5-1.906.772.772,0,0,0-.892-.6.781.781,0,0,0-.595.9,11.856,11.856,0,0,0,.5,2.006.746.746,0,0,0,.694.5h.3A.719.719,0,0,0,2.676,40.627Z"/><path d="M1.586,34.809c0-.6-.1-1.3-.1-1.906a.769.769,0,0,0-.793-.7A.772.772,0,0,0,0,33a13.6,13.6,0,0,0,.1,2.006.682.682,0,0,0,.694.7A.816.816,0,0,0,1.586,34.809Z"/><path d="M56.089,31.8a24.96,24.96,0,0,0-5.616-15.85h1.653a.8.8,0,0,0,0-1.605H48.458a.787.787,0,0,0-.793.8v3.712a.786.786,0,0,0,.793.8.749.749,0,0,0,.694-.7V16.792A24.03,24.03,0,0,1,54.6,31.9,23.311,23.311,0,0,1,34.683,55.047a3.374,3.374,0,1,0-3.171,4.539,3.412,3.412,0,0,0,3.322-2.941A24.75,24.75,0,0,0,56.089,31.8Z"/><path d="M49.944,32A18.511,18.511,0,0,0,31.513,13.341h0A18.511,18.511,0,0,0,13.081,32h0a18.433,18.433,0,1,0,36.864,0h0Zm-2.032-1H40.9c-.149-6.363-1.849-11.77-4.384-14.864A16.555,16.555,0,0,1,47.913,31ZM30.522,15.519V31H24.1C24.3,23.2,27.051,16.6,30.522,15.519Zm0,17.483V48.279C27.081,47.212,24.348,40.715,24.106,33ZM32.5,48.28V33h6.416C38.678,40.715,35.945,47.212,32.5,48.28ZM32.5,31V15.517c3.472,1.064,6.222,7.6,6.42,15.479Zm-6-14.864c-2.536,3.094-4.235,8.5-4.384,14.864H15.112A16.555,16.555,0,0,1,26.505,16.131ZM15.112,33h7.014c.185,6.466,1.974,11.924,4.609,14.936A16.55,16.55,0,0,1,15.112,33ZM36.323,47.93C38.963,44.9,40.717,39.419,40.9,33h7.013A16.552,16.552,0,0,1,36.323,47.93Z"/><path d="M17.937,47.348a.787.787,0,0,0-.793.8v2.107h0a23.432,23.432,0,0,1,11.169-41.4,3.33,3.33,0,0,0,3.2,2.379,3.426,3.426,0,0,0,3.369-3.411A3.362,3.362,0,0,0,28.2,7.253,25,25,0,0,0,15.918,51.16H14.171a.734.734,0,0,0-.793.8.786.786,0,0,0,.793.8h3.667q.595,0,.892-.9V48.15A.786.786,0,0,0,17.937,47.348Z"/></svg>