<svg xmlns="http://www.w3.org/2000/svg" width="47.761" height="64" viewBox="0 0 47.761 64"><title>services-for-retailers-icon</title><path d="M8.343,21.815a3.41,3.41,0,0,1,3.405-3.4H16.6a3.41,3.41,0,0,1,3.405,3.4v3.141h2.3V7.13H6.045V24.955h2.3ZM14.218,9.762a3.229,3.229,0,0,1,3.235,3.225,3.343,3.343,0,0,1-3.235,3.225,3.225,3.225,0,1,1,0-6.451Z"/><rect x="24.093" y="14.94" width="17.623" height="1.273"/><rect x="24.093" y="18.928" width="17.623" height="1.273"/><rect x="24.093" y="22.833" width="17.623" height="1.273"/><rect x="6.045" y="26.737" width="35.672" height="1.273"/><rect x="6.045" y="30.642" width="35.672" height="1.273"/><rect x="6.045" y="34.631" width="35.672" height="1.273"/><path d="M42.057,0H5.7A5.7,5.7,0,0,0,0,5.687V52.456a5.7,5.7,0,0,0,5.7,5.687H26.818V64l4.6-2.886,4.512,2.833v-5.8h6.13a5.7,5.7,0,0,0,5.7-5.687V5.687A5.7,5.7,0,0,0,42.057,0ZM34.82,61.708,31.5,59.671l-3.32,2.037V54.365a7.986,7.986,0,0,0,6.641,0ZM31.5,53.815a6.706,6.706,0,1,1,0-13.411,6.785,6.785,0,0,1,6.726,6.706A6.676,6.676,0,0,1,31.5,53.815Zm14.558-1.359a3.991,3.991,0,0,1-4,3.989h-6.13V53.758a8.008,8.008,0,1,0-9.11-.184v2.871H5.7a3.991,3.991,0,0,1-4-3.989V5.687A3.991,3.991,0,0,1,5.7,1.7H42.057a3.991,3.991,0,0,1,4,3.989Z"/><path d="M31.5,44.053a3.056,3.056,0,1,0,0,6.111,3.1,3.1,0,0,0,3.065-3.056A3.048,3.048,0,0,0,31.5,44.053Zm0,4.923a1.783,1.783,0,1,1,1.788-1.783A1.743,1.743,0,0,1,31.5,48.976Z"/><rect x="6.045" y="43.205" width="9.876" height="1.273"/></svg>