<svg xmlns="http://www.w3.org/2000/svg" width="64" height="64" viewBox="0 0 64 64"><title>structuring-business-icon</title><path d="M31.877,37.206l5.329-5.33a1.25,1.25,0,0,0,0-1.768l-1.739-1.74a17.148,17.148,0,0,0,1.291-3.117h2.46A1.25,1.25,0,0,0,40.468,24V16.465a1.25,1.25,0,0,0-1.25-1.25h-2.46A17.134,17.134,0,0,0,35.467,12.1l1.74-1.74a1.25,1.25,0,0,0,0-1.768l-5.33-5.33a1.25,1.25,0,0,0-1.768,0L28.369,5A17.125,17.125,0,0,0,25.252,3.71V1.25A1.25,1.25,0,0,0,24,0H16.465a1.25,1.25,0,0,0-1.25,1.25V3.71A17.139,17.139,0,0,0,12.1,5l-1.739-1.74a1.25,1.25,0,0,0-1.768,0l-5.33,5.33a1.25,1.25,0,0,0,0,1.768L5,12.1A17.14,17.14,0,0,0,3.71,15.215H1.25A1.25,1.25,0,0,0,0,16.465V24a1.25,1.25,0,0,0,1.25,1.25H3.71A17.133,17.133,0,0,0,5,28.369l-1.74,1.74a1.25,1.25,0,0,0,0,1.768l5.33,5.33a1.25,1.25,0,0,0,1.768,0l1.74-1.74a17.125,17.125,0,0,0,3.117,1.292v2.46a1.25,1.25,0,0,0,1.25,1.25H24a1.25,1.25,0,0,0,1.25-1.25v-2.46a17.13,17.13,0,0,0,3.117-1.292l1.74,1.74a1.249,1.249,0,0,0,1.768,0Zm-2.415-4.182a1.25,1.25,0,0,0-1.536-.183,14.649,14.649,0,0,1-4.216,1.747,1.25,1.25,0,0,0-.957,1.215v2.165H17.715V35.8a1.25,1.25,0,0,0-.957-1.215,14.648,14.648,0,0,1-4.216-1.747,1.25,1.25,0,0,0-1.536.183L9.475,34.554,5.913,30.992l1.531-1.531a1.25,1.25,0,0,0,.183-1.536A14.672,14.672,0,0,1,5.88,23.709a1.25,1.25,0,0,0-1.215-.957H2.5V17.715H4.664a1.25,1.25,0,0,0,1.215-.957,14.667,14.667,0,0,1,1.747-4.216,1.25,1.25,0,0,0-.182-1.536L5.913,9.475,9.475,5.913l1.531,1.531a1.25,1.25,0,0,0,1.536.182A14.673,14.673,0,0,1,16.758,5.88a1.25,1.25,0,0,0,.957-1.215V2.5h5.037V4.664a1.25,1.25,0,0,0,.957,1.215,14.664,14.664,0,0,1,4.216,1.747,1.25,1.25,0,0,0,1.536-.182l1.531-1.531,3.562,3.562-1.531,1.531a1.25,1.25,0,0,0-.182,1.536,14.661,14.661,0,0,1,1.747,4.216,1.25,1.25,0,0,0,1.215.957h2.165v5.037H35.8a1.25,1.25,0,0,0-1.215.957,14.664,14.664,0,0,1-1.747,4.216,1.25,1.25,0,0,0,.183,1.536l1.531,1.531-3.562,3.562Z"/><path d="M20.839,11.869H20.9a1.25,1.25,0,1,0,0-2.5h-.059a1.25,1.25,0,1,0,0,2.5Z"/><path d="M12.228,20.539a8.631,8.631,0,0,1,4.8-7.759,1.25,1.25,0,1,0-1.118-2.236A11.172,11.172,0,0,0,13.7,29.081a1.25,1.25,0,0,0,1.612-1.911A8.659,8.659,0,0,1,12.228,20.539Z"/><path d="M20.9,14.446a6.092,6.092,0,1,0,6.092,6.092A6.1,6.1,0,0,0,20.9,14.446Zm0,9.685a3.592,3.592,0,1,1,3.592-3.592A3.6,3.6,0,0,1,20.9,24.131Z"/><path d="M63.811,47.306a1.249,1.249,0,0,0-.779-.556l-1.7-.394a13.774,13.774,0,0,0-.382-2.292l1.482-.925a1.25,1.25,0,0,0,.4-1.722l-3.148-5.046a1.25,1.25,0,0,0-1.722-.4l-1.482.924a13.8,13.8,0,0,0-1.891-1.351l.394-1.7a1.25,1.25,0,0,0-.936-1.5L48.25,31a1.25,1.25,0,0,0-1.5.936l-.394,1.7a13.792,13.792,0,0,0-2.292.382l-.925-1.482a1.25,1.25,0,0,0-1.722-.4l-5.046,3.148a1.25,1.25,0,0,0-.4,1.723l.925,1.482a13.8,13.8,0,0,0-1.351,1.891l-1.7-.394a1.25,1.25,0,0,0-1.5.936L31,46.72a1.25,1.25,0,0,0,.936,1.5l1.7.394a13.771,13.771,0,0,0,.382,2.292l-1.482.925a1.25,1.25,0,0,0-.4,1.722L35.289,58.6a1.25,1.25,0,0,0,1.722.4l1.482-.925a13.787,13.787,0,0,0,1.891,1.351l-.394,1.7a1.25,1.25,0,0,0,.936,1.5l5.794,1.342a1.25,1.25,0,0,0,1.5-.936l.394-1.7a13.792,13.792,0,0,0,2.292-.382l.925,1.482a1.25,1.25,0,0,0,1.722.4L58.6,59.68a1.25,1.25,0,0,0,.4-1.722l-.925-1.482a13.784,13.784,0,0,0,1.351-1.89l1.7.394a1.25,1.25,0,0,0,1.5-.936l1.343-5.795A1.251,1.251,0,0,0,63.811,47.306Zm-3.338,4.956-1.407-.326a1.249,1.249,0,0,0-1.4.658,11.313,11.313,0,0,1-2.046,2.863A1.25,1.25,0,0,0,55.451,57l.765,1.226-2.925,1.825-.765-1.226A1.25,1.25,0,0,0,51.07,58.3a11.3,11.3,0,0,1-3.471.579,1.25,1.25,0,0,0-1.206.968l-.326,1.407-3.359-.778.326-1.407a1.25,1.25,0,0,0-.658-1.4,11.3,11.3,0,0,1-2.863-2.046,1.25,1.25,0,0,0-1.538-.169l-1.226.765L34.924,53.29l1.226-.765a1.25,1.25,0,0,0,.524-1.456A11.306,11.306,0,0,1,36.1,47.6a1.25,1.25,0,0,0-.968-1.206l-1.407-.326.778-3.359,1.407.326a1.251,1.251,0,0,0,1.4-.658,11.3,11.3,0,0,1,2.046-2.864,1.25,1.25,0,0,0,.169-1.538l-.765-1.226,2.925-1.825.765,1.226a1.25,1.25,0,0,0,1.455.525,11.313,11.313,0,0,1,3.472-.579,1.25,1.25,0,0,0,1.206-.968L48.9,33.72l3.359.778-.326,1.407a1.25,1.25,0,0,0,.658,1.4,11.31,11.31,0,0,1,2.864,2.046A1.25,1.25,0,0,0,57,39.52l1.226-.765,1.825,2.925-1.226.765A1.25,1.25,0,0,0,58.3,43.9a11.292,11.292,0,0,1,.579,3.471,1.25,1.25,0,0,0,.968,1.206l1.407.326Z"/><path d="M49.411,41.426A1.25,1.25,0,1,0,50,39l-.083-.019a1.25,1.25,0,0,0-.51,2.447Z"/><path d="M41.533,46.353a6.549,6.549,0,0,1,4.874-4.914,1.25,1.25,0,0,0-.585-2.431,9.08,9.08,0,0,0-5.146,14.273,1.25,1.25,0,0,0,2-1.5A6.568,6.568,0,0,1,41.533,46.353Z"/><path d="M49.085,42.9a5.1,5.1,0,0,0-1.147-.132,5.075,5.075,0,1,0,1.147.132Zm1.361,5.521a2.558,2.558,0,0,1-2.5,1.992,2.584,2.584,0,0,1-.583-.067,2.572,2.572,0,0,1,.577-5.077,2.575,2.575,0,0,1,2.508,3.152Z"/><path d="M22.855,43.09c-4.25.772-10.058.083-12.431-1.474a1.25,1.25,0,0,0-1.372,2.09c2.117,1.389,6.066,2.206,9.961,2.206A24.276,24.276,0,0,0,23.3,45.55a1.25,1.25,0,1,0-.447-2.46Z"/><path d="M26.224,41.969c-.076.044-.154.086-.234.128a1.25,1.25,0,1,0,1.165,2.212c.108-.057.214-.115.318-.175a1.25,1.25,0,0,0-1.25-2.165Z"/><path d="M45.351,28.911c1.808-.79,5.909-.751,9.132.566a1.25,1.25,0,0,0,.945-2.315c-3.57-1.458-8.437-1.7-11.079-.543a1.25,1.25,0,0,0,1,2.291Z"/><path d="M57.276,30.986a1.25,1.25,0,1,0,1.6-1.925c-.075-.062-.106-.088-.185-.148A1.25,1.25,0,0,0,57.168,30.9C57.214,30.934,57.232,30.949,57.276,30.986Z"/></svg>