<svg xmlns="http://www.w3.org/2000/svg" width="57.314" height="64" viewBox="0 0 57.314 64"><title>tax-accounting-icon</title><path d="M6.814,14.286a2.362,2.362,0,0,0,2.3,2.56,2.362,2.362,0,0,0,2.3-2.56,2.362,2.362,0,0,0-2.3-2.56A2.362,2.362,0,0,0,6.814,14.286Zm2.3-1.734c.985,0,1.313.908,1.313,1.734s-.328,1.734-1.313,1.734S7.8,15.112,7.8,14.286,8.127,12.552,9.112,12.552Z"/><path d="M3.776,10.983a2.362,2.362,0,0,0,2.3-2.56,2.362,2.362,0,0,0-2.3-2.56,2.362,2.362,0,0,0-2.3,2.56A2.362,2.362,0,0,0,3.776,10.983Zm0-4.294c.985,0,1.313.908,1.313,1.734,0,.743-.328,1.734-1.313,1.734S2.463,9.249,2.463,8.423,2.791,6.689,3.776,6.689Z"/><path d="M3.694,16.6a.463.463,0,0,0,.493.413c.246,0,.41-.165.575-.5L8.784,6.772a3.662,3.662,0,0,0,.246-.661A.463.463,0,0,0,8.538,5.7q-.246,0-.493.5l-4.1,9.745A3.662,3.662,0,0,0,3.694,16.6Z"/><path d="M23.561,10.9a.463.463,0,0,0,.493.413c.246,0,.41-.165.575-.5L28.65,1.074A3.662,3.662,0,0,0,28.9.413.463.463,0,0,0,28.4,0c-.246,0-.328.165-.493.5l-4.1,9.745A3.665,3.665,0,0,0,23.561,10.9Z"/><path d="M23.643,5.285a2.362,2.362,0,0,0,2.3-2.56,2.312,2.312,0,1,0-4.6,0C21.344,4.129,22.165,5.368,23.643,5.285Zm0-4.294c.985,0,1.313.908,1.313,1.734s-.328,1.817-1.313,1.734c-.985,0-1.313-.908-1.313-1.734S22.658.991,23.643.991Z"/><path d="M26.762,8.671a2.314,2.314,0,0,0,2.3,2.56,2.362,2.362,0,0,0,2.3-2.56,2.312,2.312,0,1,0-4.6,0Zm2.3-1.734c.985,0,1.313.908,1.313,1.734,0,.743-.328,1.734-1.313,1.734S27.747,9.5,27.747,8.671,28.076,6.937,29.061,6.937Z"/><path d="M46.465,42.281l-18.307-.248,12.56-13.378a.8.8,0,0,0,0-1.156,20.729,20.729,0,0,0-24.766-2.98l-5.034-5.195a.625.625,0,0,0-.411-.165H.657a.661.661,0,0,0,0,1.321H10.18l4.605,4.754A21.149,21.149,0,0,0,26.352,64,21.049,21.049,0,0,0,47.286,43.107.825.825,0,0,0,46.465,42.281ZM26.352,62.431A19.489,19.489,0,0,1,16.008,26.5l6.732,6.948a.625.625,0,0,0,.411.165.708.708,0,0,0,.492-.248.651.651,0,0,0,0-.908L17.18,25.786a19.142,19.142,0,0,1,9.172-2.333,18.54,18.54,0,0,1,12.642,4.872L25.777,42.446a.757.757,0,0,0-.164.908.718.718,0,0,0,.739.5l19.292.248A19.452,19.452,0,0,1,26.352,62.431Z"/><path d="M50.734,23.453a.79.79,0,0,0-1.149,0l-4.544,4.87L30.949,13.956a.625.625,0,0,0-.41-.165H20.688a.661.661,0,0,0,0,1.321H30.21L44.1,29.336l-8.3,8.9a.757.757,0,0,0-.164.908.718.718,0,0,0,.739.5l20.195.33a.713.713,0,0,0,.739-.826v-.33A20.92,20.92,0,0,0,50.734,23.453ZM38.338,38.07,45.331,30.6l2.776,2.844a.625.625,0,0,0,.41.165,1.088,1.088,0,0,0,.575-.248.651.651,0,0,0,0-.908L46.28,29.588l4.043-4.318a19.384,19.384,0,0,1,5.5,13.048Z"/></svg>