<svg xmlns="http://www.w3.org/2000/svg" width="59.224" height="64" viewBox="0 0 59.224 64"><title>translation-services-icon</title><path d="M39.563,9.664h2.445v5.7a.965.965,0,0,0,1.93,0V8.7a.987.987,0,0,0-.965-.96H39.563a.987.987,0,0,0-.965.96A.945.945,0,0,0,39.563,9.664Z"/><path d="M48.569,40.576H24.638a.96.96,0,1,0,0,1.92H48.5a.987.987,0,0,0,.965-.96A.932.932,0,0,0,48.569,40.576Z"/><path d="M48.569,44.224H24.638a.96.96,0,1,0,0,1.92H48.5a.987.987,0,0,0,.965-.96A.932.932,0,0,0,48.569,44.224Z"/><path d="M48.569,47.808H24.638a.96.96,0,1,0,0,1.92H48.5a.987.987,0,0,0,.965-.96A.932.932,0,0,0,48.569,47.808Z"/><path d="M40.463,51.456H24.638a.96.96,0,1,0,0,1.92H40.4a.987.987,0,0,0,.965-.96A.932.932,0,0,0,40.463,51.456Z"/><path d="M58.926,16.448a.936.936,0,0,0-1.351,0l-1.544,1.536a6.237,6.237,0,0,0-10.486,1.28H35.9V2.56A2.574,2.574,0,0,0,33.323,0H2.573A2.574,2.574,0,0,0,0,2.56V43.008a2.574,2.574,0,0,0,2.573,2.56H18.591V55.3a1.338,1.338,0,0,0,.257.7l7.784,7.744c.064.064.193.128.257.192h.064c.064,0,.193.064.257.064h24.7a2.739,2.739,0,0,0,2.766-2.752V27.136a6.217,6.217,0,0,0,2.831-5.184,5.367,5.367,0,0,0-.45-2.24l1.93-1.92A.987.987,0,0,0,58.926,16.448ZM18.591,21.824H5.983a.96.96,0,1,0,0,1.92H18.591v1.728H5.983a.96.96,0,1,0,0,1.92H18.591V29.12H5.983a.96.96,0,1,0,0,1.92H18.591v1.728H5.983a.96.96,0,1,0,0,1.92H18.591v9.024H2.573v-.064a.643.643,0,0,1-.643-.64V2.56a.643.643,0,0,1,.643-.64H33.387a.643.643,0,0,1,.643.64v16.7H21.357A2.793,2.793,0,0,0,18.591,21.824Zm7.784,38.912-4.439-4.48h3.6a.849.849,0,0,1,.836.832Zm26.311.512a.849.849,0,0,1-.836.832H28.241V57.088a2.739,2.739,0,0,0-2.766-2.752H20.457V22.016a.849.849,0,0,1,.836-.832H44.966c0,.256-.064.512-.064.768a6.23,6.23,0,0,0,6.24,6.208,6.375,6.375,0,0,0,1.544-.192Zm2.831-39.3a4.31,4.31,0,1,1-4.31-4.288,4.394,4.394,0,0,1,3.474,1.728l-3.088,3.072L49.92,20.8a.936.936,0,0,0-1.351,0,.925.925,0,0,0,0,1.344l2.38,2.368a.971.971,0,0,0,.708.256,1.353,1.353,0,0,0,.708-.256l3.216-3.2A1.962,1.962,0,0,0,55.516,21.952Z"/><path d="M34.288,34.688h4.567l.9,2.688h2.766l-4.567-12.16H35.188l-4.632,12.16h2.7ZM36.6,28.224l1.544,4.48H35Z"/><path d="M23.481,13.632a3.265,3.265,0,0,0-2.445-3.2.906.906,0,0,1,.129-.384L19.3,9.728c0,.192-.064.192-.064.384a5.832,5.832,0,0,0-1.673.128V8.64c1.544-.064,3.088-.192,4.5-.384L21.872,6.4a25.561,25.561,0,0,1-4.246.512A13.579,13.579,0,0,0,17.691,5.5L15.7,5.376c0,.512-.064,1.088-.064,1.6H13.188l.064,1.792h.193c.515,0,1.351,0,2.123-.064v2.048c-1.8.768-3.088,2.176-3.088,3.9a1.853,1.853,0,0,0,1.994,1.984,6.047,6.047,0,0,0,3.474-1.408,15.114,15.114,0,0,0,2.38-3.072A1.693,1.693,0,0,1,21.422,13.7c0,1.344-1.351,2.176-3.409,2.368l1.029,1.408C22.323,17.024,23.481,15.68,23.481,13.632Zm-8.556,1.152c-.643,0-.643-.384-.643-.576a2.388,2.388,0,0,1,1.351-1.664,16.6,16.6,0,0,0,.257,1.984A1.822,1.822,0,0,1,14.925,14.784Zm2.573-1.6c-.064-.448-.064-.832-.129-1.28.193,0,.772-.128,1.094-.128A5.475,5.475,0,0,1,17.5,13.184Z"/></svg>